<svg width="92" height="100" viewBox="0 0 92 100" fill="none" xmlns="http://www.w3.org/2000/svg">
<path fill-rule="evenodd" clip-rule="evenodd" d="M47.2327 99.9883C35.0309 99.8468 22.4239 98.0043 13.5895 89.5867C4.57833 81.0006 1.69922 68.371 1.00722 55.9435C0.263858 42.5937 1.09268 28.6294 9.62182 18.3326C18.8574 7.18299 32.8154 -1.18587 47.2327 0.13789C60.949 1.39728 69.9102 13.9051 78.5177 24.6585C85.8863 33.864 91.3382 44.1656 91.9023 55.9435C92.4977 68.3769 90.5285 81.636 81.6649 90.3757C72.8439 99.0732 59.6196 100.132 47.2327 99.9883Z" fill="#B332D3" fill-opacity="0.1"/>
<path d="M54.75 62.5V48.75" stroke="#B332D3" stroke-width="2" stroke-miterlimit="10" stroke-linecap="round" stroke-linejoin="round"/>
<path d="M54.75 43.75V37.5" stroke="#B332D3" stroke-width="2" stroke-miterlimit="10" stroke-linecap="round" stroke-linejoin="round"/>
<path d="M46 62.5V56.25" stroke="#B332D3" stroke-width="2" stroke-miterlimit="10" stroke-linecap="round" stroke-linejoin="round"/>
<path d="M46 51.25V37.5" stroke="#B332D3" stroke-width="2" stroke-miterlimit="10" stroke-linecap="round" stroke-linejoin="round"/>
<path d="M37.25 62.5V48.75" stroke="#B332D3" stroke-width="2" stroke-miterlimit="10" stroke-linecap="round" stroke-linejoin="round"/>
<path d="M37.25 43.75V37.5" stroke="#B332D3" stroke-width="2" stroke-miterlimit="10" stroke-linecap="round" stroke-linejoin="round"/>
<path d="M34.75 48.75H39.75" stroke="#B332D3" stroke-width="2" stroke-miterlimit="10" stroke-linecap="round" stroke-linejoin="round"/>
<path d="M52.25 48.75H57.25" stroke="#B332D3" stroke-width="2" stroke-miterlimit="10" stroke-linecap="round" stroke-linejoin="round"/>
<path d="M43.5 51.25H48.5" stroke="#B332D3" stroke-width="2" stroke-miterlimit="10" stroke-linecap="round" stroke-linejoin="round"/>
</svg>
