<svg width="132" height="38" viewBox="0 0 132 38" fill="none" xmlns="http://www.w3.org/2000/svg">
<path d="M0 7.08447H4.56964V17.2369H14.2073V7.08447H18.7828V32.0055H14.2073V21.6399H4.56964V32.0055H0V7.08447ZM33.2594 23.8884C33.2594 25.9745 31.5597 27.6721 29.4741 27.6721C27.3876 27.6721 25.689 25.9745 25.689 23.8884V13.159H21.3553V23.8884C21.3553 28.3646 24.9976 32.0055 29.4741 32.0055C33.9495 32.0055 37.5915 28.3646 37.5915 23.8884V13.159H33.2594V23.8884ZM49.6893 13.2847C47.5396 13.2847 46.0391 13.9085 44.59 15.3309V7.08447H40.2423V22.3674C40.2423 28.0879 44.3784 32.0055 49.025 32.0055C54.1908 32.0055 58.717 28.018 58.717 22.6453C58.717 17.3408 54.5433 13.2847 49.6893 13.2847ZM49.7973 27.9834C46.8513 27.9834 44.5985 25.523 44.5985 22.6453C44.5985 19.7672 46.8513 17.306 49.7973 17.306C52.2936 17.306 54.5477 19.7672 54.5477 22.6453C54.5477 25.523 52.2936 27.9834 49.7973 27.9834ZM66.0191 14.38C66.0191 12.1945 67.4753 11.5015 69.0695 11.5015C70.353 11.5015 72.0514 12.4722 73.1597 13.6512L76.0018 10.3233C74.5814 8.41681 71.7045 7.09906 69.347 7.09906C64.6317 7.09906 61.2342 9.83798 61.2342 14.38C61.2342 22.804 71.6004 20.1337 71.6004 24.8498C71.6004 26.3042 70.1794 27.5882 68.5509 27.5882C65.9846 27.5882 65.1521 26.3401 63.9739 25.0223L60.8185 28.2806C62.8304 30.7423 65.3257 31.9909 68.3075 31.9909C72.7794 31.9909 76.385 29.2175 76.385 24.8833C76.385 15.5234 66.0191 18.4359 66.0191 14.38ZM87.8306 13.0405C83.1844 13.0405 79.0479 16.9558 79.0479 22.6776V37.9999H83.3953V29.7143C84.8447 31.1357 86.3444 31.7606 88.4948 31.7606C93.3486 31.7606 97.5228 27.7049 97.5228 22.4004C97.5228 17.027 92.9954 13.0405 87.8306 13.0405ZM88.6031 27.7397C85.6574 27.7397 83.4043 25.276 83.4043 22.4004C83.4043 19.5222 85.6574 17.061 88.6031 17.061C91.0989 17.061 93.3532 19.5222 93.3532 22.4004C93.3532 25.276 91.0989 27.7397 88.6031 27.7397ZM129.525 27.9834C126.96 27.9834 126.232 26.8745 126.232 25.1751V17.6526H130.219V13.8396H126.232V8.81229L121.831 10.7879V26.1112C121.831 30.0292 124.534 32.0055 128.242 32.0055C128.797 32.0055 129.56 31.9697 129.977 31.867L131.051 27.9153C130.566 27.9489 130.012 27.9834 129.525 27.9834Z" fill="#B1AAA9"/>
<path d="M118.059 17.8744C117.226 16.4404 116.054 15.2908 114.588 14.4254C113.493 13.7877 112.357 13.3831 111.077 13.2092V8.65292C112.357 8.10949 113.151 6.90667 113.151 5.50343C113.151 3.59079 111.617 2.04088 109.706 2.04088C107.794 2.04088 106.233 3.59079 106.233 5.50343C106.233 6.90667 106.981 8.10949 108.261 8.65292V13.2113C107.237 13.3592 106.176 13.6784 105.206 14.1689C103.226 12.6648 96.7315 7.73039 92.9326 4.84839C93.0227 4.52356 93.092 4.18875 93.092 3.8355C93.092 1.71707 91.3765 0 89.2573 0C87.1381 0 85.4233 1.71707 85.4233 3.8355C85.4233 5.95368 87.1399 7.67126 89.2591 7.67126C89.982 7.67126 90.6506 7.45983 91.2275 7.11222L92.0292 7.72041L103.045 15.6576C102.463 16.1924 101.921 16.8006 101.487 17.483C100.607 18.8742 100.07 20.4049 100.07 22.0746V22.423C100.07 23.5951 100.293 24.7017 100.672 25.7412C101.006 26.6489 101.495 27.4741 102.099 28.2203L98.4434 31.8853C97.9136 31.6881 97.3381 31.6476 96.7859 31.7687C96.2336 31.8898 95.728 32.1674 95.3293 32.5683C95.0532 32.8429 94.8344 33.1697 94.6855 33.5296C94.5367 33.8894 94.4607 34.2752 94.462 34.6647C94.4623 35.4564 94.7707 36.2005 95.3308 36.7603C95.6053 37.0366 95.9319 37.2556 96.2917 37.4048C96.6515 37.5539 97.0372 37.6301 97.4267 37.6291C97.8163 37.6301 98.2022 37.5538 98.562 37.4047C98.9219 37.2556 99.2487 37.0366 99.5234 36.7603C99.7993 36.4856 100.018 36.159 100.167 35.7993C100.316 35.4396 100.392 35.054 100.391 34.6647C100.391 34.3583 100.344 34.0593 100.255 33.7752L104.034 29.9957C104.552 30.3536 105.111 30.6549 105.713 30.9147C106.899 31.4276 108.209 31.7402 109.642 31.7402H109.905C111.489 31.7402 112.984 31.368 114.389 30.6067C115.869 29.8022 117.028 28.702 117.904 27.2975C118.784 25.8891 119.268 24.3331 119.268 22.6211V22.5356C119.268 20.8516 118.878 19.2978 118.059 17.8744ZM113.442 25.8026C112.416 26.9425 111.237 27.6446 109.905 27.6446H109.685C108.924 27.6446 108.179 27.4342 107.45 27.0515C106.628 26.6302 106.004 26.0292 105.493 25.2682C104.964 24.5212 104.678 23.7057 104.678 22.841V22.5784C104.678 21.7283 104.841 20.9222 105.252 20.161C105.691 19.3288 106.285 18.6817 107.074 18.1672C107.849 17.6563 108.677 17.4057 109.599 17.4057H109.685C110.521 17.4057 111.312 17.5705 112.059 17.9527C112.82 18.3602 113.442 18.9169 113.924 19.6493C114.392 20.3819 114.671 21.1721 114.76 22.0329C114.775 22.2118 114.782 22.3951 114.782 22.5702C114.782 23.7385 114.335 24.8205 113.442 25.8026Z" fill="#B1AAA9"/>
</svg>
