<svg width="92" height="100" viewBox="0 0 92 100" fill="none" xmlns="http://www.w3.org/2000/svg">
<path fill-rule="evenodd" clip-rule="evenodd" d="M44.7673 0.0117399C56.9691 0.15316 69.5761 1.99571 78.4105 10.4133C87.4217 18.9994 90.3008 31.629 90.9928 44.0565C91.7361 57.4063 90.9073 71.3706 82.3782 81.6674C73.1426 92.817 59.1846 101.186 44.7673 99.8621C31.051 98.6027 22.0898 86.0949 13.4823 75.3415C6.11374 66.136 0.661786 55.8344 0.0977454 44.0565C-0.497689 31.6231 1.4715 18.364 10.3351 9.62434C19.1561 0.926778 32.3804 -0.131826 44.7673 0.0117399Z" fill="#16C571" fill-opacity="0.1"/>
<path d="M58.5 47.5V53.75C58.5 60 56 62.5 49.75 62.5H42.25C36 62.5 33.5 60 33.5 53.75V46.25C33.5 40 36 37.5 42.25 37.5H48.5" stroke="#16C571" stroke-width="2" stroke-linecap="round" stroke-linejoin="round"/>
<path d="M58.5 47.5H53.5C49.75 47.5 48.5 46.25 48.5 42.5V37.5L58.5 47.5Z" stroke="#16C571" stroke-width="2" stroke-linecap="round" stroke-linejoin="round"/>
<path d="M39.75 51.25H47.25" stroke="#16C571" stroke-width="2" stroke-linecap="round" stroke-linejoin="round"/>
<path d="M39.75 56.25H44.75" stroke="#16C571" stroke-width="2" stroke-linecap="round" stroke-linejoin="round"/>
</svg>
