<svg width="95" height="100" viewBox="0 0 95 100" fill="none" xmlns="http://www.w3.org/2000/svg">
<path fill-rule="evenodd" clip-rule="evenodd" d="M47.5593 0.0258613C57.034 -0.448121 65.5594 5.67447 72.8857 11.7134C79.6437 17.2837 83.7695 24.9934 87.4825 32.9334C91.2294 40.946 95.6247 49.1899 94.5158 57.9685C93.4 66.803 87.037 73.7057 81.4571 80.6364C75.6866 87.8039 70.3043 96.1447 61.5427 98.9245C52.7265 101.722 43.3228 98.5192 34.5763 95.5103C26.1492 92.6113 18.1021 88.5928 12.1632 81.9372C6.16688 75.2174 2.53822 66.7937 1.02273 57.908C-0.520953 48.857 -0.759125 39.172 3.48112 31.032C7.63565 23.0566 16.4591 19.3376 23.8074 14.1686C31.5009 8.75664 38.171 0.495519 47.5593 0.0258613Z" fill="#02B8C4" fill-opacity="0.1"/>
<path d="M50.9 50.8696V54.9646C50.9 58.3846 49.535 59.7496 46.115 59.7496H42.035C38.63 59.7496 37.25 58.3846 37.25 54.9646V50.8696C37.25 47.4646 38.615 46.0996 42.035 46.0996H46.13C49.535 46.0996 50.9 47.4646 50.9 50.8696Z" stroke="#02B8C4" stroke-width="2" stroke-linecap="round" stroke-linejoin="round"/>
<path d="M56.7496 45.02V49.115C56.7496 52.535 55.3846 53.9 51.9646 53.9H50.8996V50.87C50.8996 47.465 49.5346 46.1 46.1146 46.1H43.0996V45.02C43.0996 41.6 44.4646 40.25 47.8846 40.25H51.9796C55.3846 40.25 56.7496 41.615 56.7496 45.02Z" stroke="#02B8C4" stroke-width="2" stroke-linecap="round" stroke-linejoin="round"/>
<path d="M62 54.5C62 60.305 57.305 65 51.5 65L53.075 62.375" stroke="#02B8C4" stroke-width="2" stroke-linecap="round" stroke-linejoin="round"/>
<path d="M32 45.5C32 39.695 36.695 35 42.5 35L40.925 37.625" stroke="#02B8C4" stroke-width="2" stroke-linecap="round" stroke-linejoin="round"/>
</svg>
