<svg width="91" height="38" viewBox="0 0 91 38" fill="none" xmlns="http://www.w3.org/2000/svg">
<path fill-rule="evenodd" clip-rule="evenodd" d="M77.1591 10.4255C77.322 10.8812 77.3758 11.2804 77.4301 11.5652C77.4849 11.8499 77.4849 12.1347 77.5391 12.3626C77.6107 12.0817 77.7204 11.8132 77.8649 11.5652C77.9739 11.2804 78.1906 10.8812 78.462 10.4255L85.3586 0H90.6801L79.711 15.2678L83.5667 24.0411H78.2996L76.9963 19.8823C76.8882 19.597 76.8334 19.2558 76.7254 18.914C76.7254 18.6288 76.6706 18.287 76.6706 17.9453C76.5077 18.287 76.3996 18.6288 76.2363 18.914C76.0734 19.2558 75.9106 19.5975 75.7477 19.8823L73.1416 24.0411H67.9292L74.553 15.2678L71.3497 7.63366H76.4001L77.1591 10.4255Z" fill="#B1AAA9"/>
<path fill-rule="evenodd" clip-rule="evenodd" d="M69.5026 7.63434L66.8417 24.0418H62.5522L62.9865 21.3638C62.2265 22.503 61.3574 23.3583 60.5431 23.8709C59.6741 24.3835 58.7512 24.6683 57.665 24.6683C55.9269 24.6683 54.6246 23.8709 53.8641 22.2756C53.0488 20.6804 52.886 18.515 53.3208 15.8376C53.755 13.1596 54.6241 11.0522 55.9817 9.45694C57.3393 7.91861 58.9684 7.12072 60.8684 7.12072C61.8465 7.12072 62.6603 7.34854 63.3117 7.91861C63.9088 8.43122 64.3974 9.22911 64.7779 10.3113L65.2122 7.63383H69.5026V7.63434ZM64.0726 15.8381C64.2903 14.5281 64.1817 13.5024 63.7469 12.7614C63.3126 12.021 62.6069 11.6792 61.6831 11.6792C60.706 11.6792 59.8922 12.021 59.2398 12.7614C58.5884 13.5024 58.1541 14.5281 57.9369 15.8381C57.7193 17.0916 57.8279 18.1168 58.2627 18.8573C58.6969 19.5417 59.4027 19.9399 60.3255 19.9399C61.2493 19.9399 62.0636 19.5417 62.7698 18.8573C63.4217 18.1168 63.856 17.0911 64.0726 15.8381ZM40.6703 24.0418H45.2856L46.426 17.262C46.6427 15.6667 47.186 14.4706 47.9465 13.5588C48.7065 12.704 49.6298 12.3053 50.7694 12.3053C51.0413 12.3053 51.2589 12.3053 51.5303 12.3622C51.8013 12.4192 52.0727 12.5331 52.3446 12.647L53.6474 7.34854C53.4308 7.34854 53.2679 7.29159 53.0503 7.29159H52.5079C51.4222 7.29159 50.3903 7.63332 49.4675 8.31731C48.5984 9.05774 47.7841 10.0835 47.1322 11.5074L47.7294 7.63332H43.3313L40.6703 24.0418ZM30.0818 24.0418H35.2947L38.2813 4.89942H77.7021L80.2545 0.227997H13.1952L12.2719 4.89942H33.0142L30.0818 24.0418ZM9.44855 24.0418L12.109 7.63434H16.399L15.8557 10.9383C16.6699 9.62832 17.539 8.66006 18.4623 8.03304C19.3852 7.40652 20.4171 7.12122 21.5571 7.12122C22.4256 7.12122 23.1323 7.29209 23.729 7.63434C24.3809 7.97608 24.8152 8.43173 25.1409 9.11571C25.4123 9.62832 25.5209 10.3123 25.5752 11.1097C25.5752 11.9071 25.4666 13.1037 25.1952 14.642L23.6747 24.0423H19.0052L20.4171 15.269C20.6342 13.9585 20.6342 12.9903 20.3628 12.4202C20.1457 11.7937 19.6028 11.5089 18.8423 11.5089C17.8647 11.5089 17.1047 11.9645 16.5076 12.8194C15.9104 13.7307 15.4762 15.1551 15.1504 17.1491L14.0105 24.0428H9.44855V24.0418ZM4.18142 4.89942L5.15904 0.0571289H9.82855L8.90521 4.89942H4.18142ZM1.19476 24.0418L3.85571 7.63434H8.52522L5.86475 24.0418H1.19476ZM0.380966 36.8605L1.24953 36.803C1.24953 37.0314 1.30382 37.1448 1.46667 37.2587C1.57524 37.3731 1.79238 37.4296 2.06381 37.4296C2.33524 37.4296 2.55238 37.3731 2.71572 37.3151C2.87857 37.2017 2.93286 37.0878 2.98715 36.9734C2.98715 36.917 2.98715 36.86 2.93286 36.8025C2.87906 36.7461 2.77 36.6881 2.66143 36.6317C2.55238 36.6317 2.33524 36.5752 2.00953 36.5172C1.57524 36.4038 1.24953 36.2899 1.08619 36.1755C0.869049 36.0046 0.814764 35.7773 0.869049 35.549C0.923335 35.3781 1.03191 35.2073 1.19476 35.0933C1.30382 34.9225 1.52047 34.8091 1.7919 34.7516C2.00904 34.6382 2.33475 34.6382 2.66095 34.6382C3.14952 34.6382 3.52951 34.6946 3.80142 34.8655C4.01857 35.0928 4.07285 35.3212 4.01857 35.6065H3.15C3.15 35.4356 3.15 35.3212 3.04143 35.2647C2.93286 35.2073 2.71572 35.1503 2.49858 35.1503C2.22715 35.1503 2.0643 35.2067 1.90095 35.2647C1.80404 35.3092 1.72668 35.3904 1.6843 35.492C1.6843 35.5485 1.6843 35.6065 1.79287 35.6629C1.90144 35.7773 2.11858 35.8338 2.49906 35.8902C2.93334 35.9477 3.20477 36.0621 3.36763 36.1186C3.58477 36.233 3.69334 36.2894 3.80191 36.4603C3.85619 36.5747 3.85619 36.7456 3.85619 36.9729C3.80191 37.1438 3.69334 37.3146 3.53048 37.4855C3.31334 37.6574 3.0962 37.7708 2.87906 37.8283C2.60715 37.9417 2.28144 37.9991 1.90095 37.9991C1.35859 37.9991 0.978105 37.8847 0.706678 37.7138C0.489052 37.486 0.380966 37.2023 0.380966 36.8605ZM5.10476 34.6952H5.97332L5.53855 36.4613C5.48427 36.6886 5.42998 36.917 5.42998 36.9739C5.42998 37.0883 5.48427 37.2023 5.64712 37.3157C5.75569 37.3731 5.91904 37.4301 6.18998 37.4301C6.40712 37.4301 6.62426 37.3736 6.73283 37.3157C6.89569 37.2023 7.00474 37.1448 7.05903 37.0314C7.11331 36.917 7.1676 36.7461 7.22188 36.4613L7.60188 34.6952H8.47093L8.09093 36.4044C7.98188 36.7461 7.92808 37.0309 7.81902 37.2017C7.76474 37.3726 7.60188 37.486 7.49331 37.5999C7.33094 37.7143 7.11331 37.8283 6.89617 37.8852C6.67903 37.9422 6.4076 37.9996 6.08189 37.9996C5.77066 38.0042 5.46021 37.9658 5.15856 37.8852C4.9957 37.7708 4.83285 37.7143 4.72427 37.5999C4.61522 37.4855 4.61522 37.3726 4.56142 37.2017C4.56142 37.0309 4.6157 36.7461 4.67047 36.4044L5.10476 34.6952ZM8.63379 36.8605L9.50284 36.803C9.50284 37.0314 9.55712 37.1448 9.71998 37.2587C9.82855 37.3731 10.0457 37.4296 10.3171 37.4296C10.5885 37.4296 10.8057 37.3731 10.9685 37.3151C11.1314 37.2017 11.1857 37.0878 11.24 36.9734C11.24 36.917 11.24 36.86 11.1857 36.8025C11.1314 36.7461 11.0771 36.6881 10.9138 36.6317C10.8052 36.6317 10.5881 36.5752 10.2623 36.5172C9.82806 36.4038 9.50235 36.2899 9.39378 36.1755C9.12187 36.0046 9.06758 35.7773 9.12187 35.549C9.17615 35.3781 9.28472 35.2073 9.39378 35.0933C9.55664 34.9225 9.77329 34.8091 10.0452 34.7516C10.2623 34.6382 10.5338 34.6382 10.9138 34.6382C11.4028 34.6382 11.7828 34.6946 12.0542 34.8655C12.2714 35.0928 12.3257 35.3212 12.2714 35.6065H11.4028C11.4028 35.4356 11.3485 35.3212 11.2942 35.2647C11.1857 35.2073 10.9685 35.1503 10.7514 35.1503C10.48 35.1503 10.3171 35.2067 10.1538 35.2647C10.0567 35.3092 9.97921 35.3903 9.93663 35.492C9.93663 35.5485 9.93663 35.6065 10.0457 35.6629C10.1543 35.7773 10.3719 35.8338 10.7519 35.8902C11.1862 35.9477 11.4576 36.0621 11.6752 36.1186C11.8381 36.233 11.9466 36.2894 12.0552 36.4603C12.1095 36.5747 12.1638 36.7456 12.1095 36.9729C12.0552 37.1438 11.9466 37.3146 11.7838 37.4855C11.5666 37.6574 11.3495 37.7708 11.1319 37.8283C10.8605 37.9417 10.5347 37.9991 10.1543 37.9991C9.61141 37.9991 9.23141 37.8847 8.95998 37.7138C8.74284 37.486 8.63379 37.2023 8.63379 36.8605ZM12.5976 37.9422L13.3576 34.6952H14.7152C15.2585 34.6952 15.5838 34.6952 15.7466 34.7516C15.9638 34.7516 16.1271 34.866 16.29 35.0369C16.3985 35.2078 16.4528 35.4361 16.3985 35.6634C16.3539 35.8569 16.2601 36.034 16.1271 36.176C15.9642 36.2904 15.8552 36.4044 15.6928 36.5178C15.53 36.5752 15.3671 36.6322 15.2042 36.6322C14.9871 36.6886 14.6614 36.6886 14.2814 36.6886H13.7385L13.4666 37.9422H12.5976ZM14.0643 35.2078L13.8471 36.176H14.3352C14.6614 36.176 14.9328 36.1196 15.0414 36.1196C15.15 36.0631 15.2585 36.0052 15.3133 35.9487C15.4219 35.8343 15.4757 35.7778 15.4757 35.6634C15.53 35.549 15.4757 35.4925 15.4214 35.3781C15.3671 35.3217 15.2585 35.2647 15.0957 35.2647C15.0414 35.2073 14.8238 35.2073 14.4981 35.2073H14.0643V35.2078ZM16.5614 37.9422L17.3219 34.6952H20.4709L20.3623 35.2078H18.0276L17.8647 35.9487H20.0366L19.8738 36.4613H17.7561L17.539 37.3731H19.928L19.7652 37.9422H16.5614ZM20.5252 37.9422L21.2857 34.6952H22.1004L23.349 36.8605L23.8918 34.6952H24.6518L23.8918 37.9422H23.0233L21.829 35.8343L21.3399 37.9422H20.5252ZM24.8152 36.8605L25.6837 36.803C25.6837 37.0314 25.738 37.1448 25.9009 37.2587C26.0094 37.3731 26.2266 37.4296 26.498 37.4296C26.7197 37.4296 26.9398 37.391 27.1494 37.3151C27.3123 37.2017 27.3666 37.0878 27.4209 36.9734C27.4209 36.917 27.4209 36.86 27.3666 36.8025C27.3123 36.7461 27.258 36.6881 27.0951 36.6317C26.9861 36.6317 26.7694 36.5752 26.4432 36.5172C26.009 36.4038 25.6832 36.2899 25.5747 36.1755C25.3028 36.0046 25.249 35.7773 25.3028 35.549C25.3606 35.3781 25.4534 35.2226 25.5747 35.0933C25.7375 34.9225 25.9547 34.8091 26.2261 34.7516C26.4432 34.6382 26.7694 34.6382 27.0951 34.6382C27.5837 34.6382 27.9637 34.6946 28.2356 34.8655C28.4528 35.0928 28.507 35.3212 28.4528 35.6065H27.5837C27.638 35.4356 27.5294 35.3212 27.4751 35.2647C27.3666 35.2073 27.2032 35.1503 26.9323 35.1503C26.6604 35.1503 26.498 35.2067 26.3352 35.2647C26.238 35.309 26.1604 35.3902 26.118 35.492C26.118 35.5485 26.1723 35.6065 26.2266 35.6629C26.3356 35.7773 26.5528 35.8338 26.9866 35.8902C27.3671 35.9477 27.6385 36.0621 27.8556 36.1186C28.0185 36.233 28.1271 36.2894 28.2356 36.4603C28.2899 36.5747 28.3442 36.7456 28.2899 36.9729C28.2356 37.1438 28.1271 37.3146 27.9642 37.4855C27.7475 37.6574 27.5299 37.7708 27.3128 37.8283C27.0413 37.9417 26.7156 37.9991 26.3356 37.9991C25.7928 37.9991 25.4123 37.8847 25.1409 37.7138C24.9233 37.486 24.8152 37.2023 24.8152 36.8605ZM28.7247 37.9422L29.4847 34.6952H30.3532L29.5932 37.9422H28.7247ZM30.6247 36.2904C30.6789 36.0051 30.8418 35.7204 31.0051 35.4931C31.168 35.3222 31.3309 35.1513 31.4937 35.0374C31.7108 34.923 31.928 34.8101 32.1451 34.7521C32.4166 34.6957 32.7423 34.6387 33.0685 34.6387C33.7199 34.6387 34.1542 34.7521 34.4799 35.0939C34.8056 35.3791 34.8604 35.7783 34.7518 36.291C34.6432 36.8036 34.3718 37.2028 33.937 37.5445C33.4485 37.8298 32.9594 38.0001 32.3085 38.0001C31.6566 38.0001 31.2223 37.8293 30.8966 37.5445C30.6247 37.2587 30.5161 36.8605 30.6247 36.2904ZM31.4937 36.2904C31.4394 36.6886 31.4937 36.917 31.6566 37.1448C31.8194 37.3157 32.0908 37.4301 32.4166 37.4301C32.7966 37.4301 33.0685 37.3157 33.3394 37.1448C33.6113 36.9175 33.7737 36.6891 33.8827 36.2904C33.937 35.9487 33.937 35.6639 33.7742 35.4361C33.557 35.2652 33.3399 35.2078 32.9594 35.2078C32.5789 35.2078 32.308 35.2652 32.0366 35.4361C31.7651 35.6634 31.6023 35.9487 31.4937 36.2904ZM35.0775 37.9422L35.8375 34.6952H36.6523L37.9013 36.8605L38.3899 34.6952H39.2042L38.4437 37.9422H37.5751L36.3261 35.8343L35.8375 37.9422H35.0775ZM41.9189 37.9422L42.5708 35.2078H41.3218L41.4303 34.6952H44.797L44.6884 35.2078H43.4394L42.788 37.9422H41.9189ZM44.6337 37.9422L45.3941 34.6952H48.5437L48.3808 35.2078H46.1003L45.9365 35.9487H48.0546L47.9465 36.4613H45.8289L45.6113 37.3731H48.0003L47.8375 37.9422H44.6337ZM51.5846 36.7461L52.3446 36.917C52.1817 37.2587 51.856 37.5435 51.5303 37.7143C51.2036 37.8852 50.8241 37.9996 50.3346 37.9996C49.7922 37.9996 49.3575 37.8288 49.086 37.544C48.7603 37.2587 48.7065 36.8605 48.8141 36.3469C48.9232 35.7778 49.1946 35.3786 49.6294 35.0933C50.0636 34.7516 50.6065 34.6382 51.2036 34.6382C51.6932 34.6382 52.1265 34.7516 52.3984 34.9799C52.5613 35.0933 52.616 35.3217 52.6703 35.549L51.8013 35.7199C51.8013 35.549 51.6932 35.4356 51.5846 35.3217C51.4217 35.2073 51.2589 35.2073 51.0413 35.2073C50.7155 35.2073 50.4441 35.2647 50.1732 35.4356C49.9556 35.6065 49.7927 35.8907 49.6836 36.2899C49.6298 36.6881 49.6298 36.9734 49.7927 37.1443C49.9556 37.3151 50.1732 37.4296 50.4989 37.4296C50.7156 37.4296 50.9332 37.3731 51.096 37.2587C51.3127 37.1448 51.4755 36.9739 51.5846 36.7461ZM52.887 37.9422L53.6474 34.6952H54.5165L54.1908 35.9487H55.8736L56.1993 34.6952H57.0146L56.2541 37.9422H55.4393L55.7651 36.5178H54.0817L53.756 37.9422H52.887ZM57.1774 37.9422L57.9374 34.6952H58.7517L60.0003 36.8605L60.4888 34.6952H61.3036L60.5436 37.9422H59.6746L58.4798 35.8343L57.9374 37.9422H57.1774ZM61.6293 36.2904C61.7384 36.0051 61.8469 35.7204 62.0636 35.4931C62.1864 35.2997 62.3547 35.1427 62.5522 35.0374C62.7351 34.9089 62.9368 34.8125 63.1493 34.7521C63.475 34.6957 63.7464 34.6387 64.1274 34.6387C64.7245 34.6387 65.2131 34.7521 65.485 35.0939C65.8107 35.3791 65.9188 35.7783 65.8107 36.291C65.6479 36.8036 65.3765 37.2028 64.9417 37.5445C64.5074 37.8298 63.9636 38.0001 63.3126 38.0001C62.7155 38.0001 62.2269 37.8293 61.9012 37.5445C61.6293 37.2587 61.5207 36.8605 61.6293 36.2904ZM62.5527 36.2904C62.4436 36.6886 62.4989 36.917 62.6617 37.1448C62.8784 37.3157 63.096 37.4301 63.476 37.4301C63.8017 37.4301 64.1284 37.3157 64.345 37.1448C64.617 36.9175 64.8336 36.6891 64.8884 36.2904C64.9965 35.9487 64.9422 35.6639 64.7793 35.4361C64.6165 35.2652 64.345 35.2078 63.9641 35.2078C63.6384 35.2078 63.3126 35.2652 63.0412 35.4361C62.8241 35.6634 62.6074 35.9487 62.5527 36.2904ZM66.0817 37.9422L66.8417 34.6952H67.7107L67.0593 37.3731H69.2312L69.1231 37.9422H66.0817ZM69.8836 36.2904C69.9917 36.0051 70.1003 35.7204 70.3174 35.4931C70.4404 35.2994 70.609 35.1424 70.8069 35.0374C71.0236 34.923 71.1864 34.8101 71.4041 34.7521C71.7253 34.6801 72.0527 34.6421 72.3812 34.6387C72.9783 34.6387 73.4669 34.7521 73.7926 35.0939C74.0645 35.3791 74.1731 35.7783 74.0645 36.291C73.9017 36.8036 73.6302 37.2028 73.1955 37.5445C72.7617 37.8298 72.2183 38.0001 71.5674 38.0001C70.9703 38.0001 70.4807 37.8293 70.2098 37.5445C69.8836 37.2587 69.7745 36.8605 69.8836 36.2904ZM70.8064 36.2904C70.6974 36.6886 70.7517 36.917 70.9145 37.1448C71.1322 37.3157 71.3488 37.4301 71.7298 37.4301C72.0555 37.4301 72.3812 37.3157 72.5979 37.1448C72.8698 36.9175 73.0874 36.6891 73.1412 36.2904C73.2503 35.9487 73.195 35.6639 73.0321 35.4361C72.8693 35.2652 72.5979 35.2078 72.2721 35.2078C71.8926 35.2078 71.5669 35.2652 71.295 35.4361C71.0774 35.6634 70.8602 35.9487 70.8064 36.2904ZM76.5074 36.7461L76.6702 36.176H78.5164L78.1907 37.486C77.974 37.6004 77.7021 37.7144 77.3226 37.8288C76.989 37.9407 76.641 37.9983 76.2907 37.9996C75.8564 37.9996 75.5307 37.8852 75.205 37.7713C74.9331 37.6004 74.7155 37.4296 74.6079 37.1448C74.4988 36.8605 74.4988 36.5757 74.5531 36.2904C74.6621 35.9487 74.825 35.6639 75.0426 35.3786C75.3136 35.1513 75.6398 34.923 75.9655 34.8096C76.2364 34.6952 76.6169 34.6387 76.9964 34.6387C77.5398 34.6387 77.9202 34.6952 78.1912 34.866C78.4631 35.0369 78.5717 35.2652 78.6255 35.5495L77.7026 35.7204C77.7026 35.5495 77.5936 35.4361 77.486 35.3222C77.3231 35.2078 77.1055 35.2078 76.8888 35.2078C76.5083 35.2078 76.1826 35.2652 75.9107 35.4361C75.6941 35.607 75.5312 35.8912 75.4764 36.2335C75.3683 36.6317 75.4226 36.917 75.5855 37.1443C75.7483 37.3151 75.966 37.4296 76.3455 37.4296C76.5083 37.4296 76.726 37.3731 76.8888 37.3151C77.1055 37.2587 77.2683 37.2017 77.4312 37.1443L77.5402 36.7461H76.5074ZM80.0374 37.9422L80.3078 36.5752L79.2221 34.6952H80.254L80.9054 35.9487L82.2088 34.6952H83.1859L81.1769 36.5752L80.8516 37.9422H80.0374ZM0 31.8468H83.6202L84.4892 27.8014H0.869049L0 31.8468Z" fill="#B1AAA9"/>
</svg>
