<svg width="161" height="50" viewBox="0 0 161 50" fill="none" xmlns="http://www.w3.org/2000/svg">
<path fill-rule="evenodd" clip-rule="evenodd" d="M17.5948 29.1401V12.9024C16.0046 12.596 14.5857 11.7079 13.6152 10.4115C12.6446 9.11511 12.1921 7.50351 12.346 5.89137C12.4998 4.27923 13.2491 2.78236 14.4474 1.69298C15.6457 0.603617 17.207 0 18.8265 0C20.4459 0 22.0073 0.603617 23.2056 1.69298C24.404 2.78236 25.1531 4.27923 25.307 5.89137C25.461 7.50351 25.0084 9.11511 24.0379 10.4115C23.0673 11.7079 21.6484 12.596 20.0582 12.9024V29.1401C20.0582 29.4668 19.9284 29.78 19.6974 30.0111C19.4664 30.2421 19.1531 30.3717 18.8265 30.3717C18.4998 30.3717 18.1866 30.2421 17.9556 30.0111C17.7246 29.78 17.5948 29.4668 17.5948 29.1401ZM21.0749 3.14801C20.4093 2.70332 19.6269 2.46597 18.8265 2.46597C17.7536 2.46714 16.725 2.89388 15.9663 3.65251C15.2076 4.41114 14.7808 5.43975 14.7796 6.51265C14.7795 7.31307 15.0168 8.09551 15.4615 8.76105C15.9062 9.4266 16.5382 9.94533 17.2776 10.2517C18.0171 10.558 18.8308 10.6382 19.6159 10.4821C20.4009 10.3259 21.122 9.94052 21.688 9.37457C22.254 8.8086 22.6395 8.08752 22.7956 7.30249C22.9518 6.51745 22.8717 5.70373 22.5654 4.96424C22.2591 4.22475 21.7404 3.5927 21.0749 3.14801ZM28.0432 11.6829C29.0985 10.6273 30.5298 10.0335 32.0227 10.0318C33.5155 10.0335 34.9468 10.6273 36.0024 11.6829C37.058 12.7386 37.6515 14.1699 37.6532 15.6627V31.1734C37.6532 33.6457 37.1662 36.0939 36.22 38.3781C35.274 40.6623 33.8873 42.7376 32.1389 44.4859C30.3908 46.2341 28.3154 47.6208 26.0313 48.567C23.7471 49.513 21.2989 50 18.8266 50C16.3542 50 13.9061 49.513 11.622 48.567C9.33782 47.6208 7.26238 46.2341 5.51418 44.4859C3.76598 42.7376 2.37921 40.6623 1.43309 38.3781C0.486962 36.0939 0 33.6457 0 31.1734V15.6627C0 14.1695 0.593195 12.7374 1.6491 11.6815C2.70501 10.6256 4.13713 10.0324 5.63039 10.0324C7.12366 10.0324 8.55578 10.6256 9.61168 11.6815C10.6676 12.7374 11.2608 14.1695 11.2608 15.6627V29.6883C11.2449 30.6921 11.4289 31.6887 11.802 32.6205C12.1751 33.5523 12.7299 34.4005 13.434 35.1159C14.1381 35.8313 14.9775 36.3994 15.9034 36.7872C16.8292 37.1749 17.8229 37.3746 18.8266 37.3746C19.8303 37.3746 20.824 37.1749 21.7498 36.7872C22.6756 36.3994 23.515 35.8313 24.2193 35.1159C24.9234 34.4005 25.478 33.5523 25.8512 32.6205C26.2243 31.6887 26.4082 30.6921 26.3924 29.6883V15.6627C26.3938 14.1699 26.9876 12.7386 28.0432 11.6829ZM30.3971 42.7428C33.4658 39.6741 35.1899 35.5121 35.1899 31.1722V15.6627C35.1899 14.8228 34.8561 14.0172 34.2623 13.4233C33.6683 12.8293 32.8628 12.4957 32.0227 12.4957C31.1828 12.4957 30.3773 12.8293 29.7833 13.4233C29.1893 14.0172 28.8557 14.8228 28.8557 15.6627V29.6883C28.8557 32.3483 27.799 34.8993 25.9184 36.7801C24.0375 38.6609 21.4865 39.7175 18.8266 39.7175C16.1667 39.7175 13.6157 38.6609 11.7349 36.7801C9.8541 34.8993 8.79747 32.3483 8.79747 29.6883V15.6627C8.79025 14.8275 8.4534 14.029 7.86025 13.4409C7.2671 12.8528 6.46566 12.5229 5.63039 12.5229C4.79513 12.5229 3.99369 12.8528 3.40054 13.4409C2.80736 14.029 2.47053 14.8275 2.46332 15.6627V31.1722C2.46332 35.5121 4.18731 39.6741 7.25602 42.7428C10.3247 45.8114 14.4868 47.5355 18.8266 47.5355C23.1664 47.5355 27.3285 45.8114 30.3971 42.7428Z" fill="#FF3F15"/>
<path d="M56.013 35.1333C54.5019 35.1333 53.2219 34.8755 52.173 34.3599C51.1419 33.8444 50.3064 33.1422 49.6664 32.2533C49.0441 31.3644 48.5819 30.351 48.2797 29.2133C47.9952 28.0755 47.853 26.8933 47.853 25.6666V16.0666H50.8397V25.6666C50.8397 26.5377 50.9286 27.3822 51.1064 28.1999C51.2841 28.9999 51.5686 29.7199 51.9597 30.3599C52.3508 30.9999 52.8752 31.5066 53.533 31.8799C54.2086 32.2533 55.0352 32.4399 56.013 32.4399C57.0086 32.4399 57.8352 32.2533 58.493 31.8799C59.1686 31.4888 59.693 30.9733 60.0664 30.3333C60.4575 29.6755 60.7419 28.9466 60.9197 28.1466C61.0975 27.3466 61.1864 26.5199 61.1864 25.6666V16.0666H64.1997V25.6666C64.1997 26.9644 64.0397 28.191 63.7197 29.3466C63.4175 30.4844 62.9375 31.4888 62.2797 32.3599C61.6397 33.2133 60.8041 33.8888 59.773 34.3866C58.7419 34.8844 57.4886 35.1333 56.013 35.1333Z" fill="#261A18"/>
<path d="M80.0968 34.9999H77.1634V27.1866C77.1634 25.8888 76.9501 24.9377 76.5234 24.3333C76.1146 23.7288 75.5012 23.4266 74.6834 23.4266C74.1146 23.4266 73.5457 23.5688 72.9768 23.8533C72.4257 24.1377 71.9279 24.5288 71.4834 25.0266C71.039 25.5066 70.719 26.0666 70.5234 26.7066V34.9999H67.5901V21.0533H70.2568V23.8533C70.6123 23.231 71.0746 22.6977 71.6434 22.2533C72.2301 21.791 72.8879 21.4355 73.6168 21.1866C74.3457 20.9377 75.119 20.8133 75.9368 20.8133C76.7723 20.8133 77.4568 20.9644 77.9901 21.2666C78.5412 21.5688 78.9679 21.9866 79.2701 22.5199C79.5901 23.0355 79.8034 23.6399 79.9101 24.3333C80.0346 25.0088 80.0968 25.7288 80.0968 26.4933V34.9999Z" fill="#261A18"/>
<path d="M82.6216 28.0399C82.6216 26.7066 82.8882 25.4977 83.4216 24.4133C83.9727 23.311 84.7193 22.4399 85.6616 21.7999C86.6038 21.1422 87.6882 20.8133 88.9149 20.8133C89.9816 20.8133 90.9416 21.0888 91.7949 21.6399C92.666 22.191 93.3416 22.8755 93.8216 23.6933V15.5333H96.7549V31.6933C96.7549 32.031 96.8171 32.271 96.9416 32.4133C97.066 32.5555 97.2705 32.6355 97.5549 32.6533V34.9999C97.0038 35.0888 96.5771 35.1333 96.2749 35.1333C95.7238 35.1333 95.2527 34.9733 94.8616 34.6533C94.4882 34.3333 94.2927 33.951 94.2749 33.5066L94.2482 32.4666C93.7149 33.3555 92.9949 34.0488 92.0882 34.5466C91.1816 35.0266 90.2393 35.2666 89.2616 35.2666C88.3016 35.2666 87.4127 35.0799 86.5949 34.7066C85.7949 34.3333 85.0927 33.8088 84.4882 33.1333C83.9016 32.4577 83.4393 31.6844 83.1016 30.8133C82.7816 29.9422 82.6216 29.0177 82.6216 28.0399ZM93.8216 29.9866V26.3333C93.626 25.7644 93.306 25.2577 92.8616 24.8133C92.4349 24.351 91.946 23.9866 91.3949 23.7199C90.8616 23.4533 90.3282 23.3199 89.7949 23.3199C89.1727 23.3199 88.6038 23.4533 88.0882 23.7199C87.5905 23.9866 87.1549 24.3422 86.7816 24.7866C86.426 25.231 86.1505 25.7377 85.9549 26.3066C85.7593 26.8755 85.6616 27.471 85.6616 28.0933C85.6616 28.7333 85.7682 29.3377 85.9816 29.9066C86.1949 30.4577 86.4971 30.9555 86.8882 31.3999C87.2971 31.8266 87.7593 32.1644 88.2749 32.4133C88.8082 32.6444 89.386 32.7599 90.0082 32.7599C90.3993 32.7599 90.7905 32.6888 91.1816 32.5466C91.5905 32.4044 91.9727 32.2088 92.3282 31.9599C92.7016 31.711 93.0127 31.4177 93.2616 31.0799C93.5282 30.7422 93.7149 30.3777 93.8216 29.9866Z" fill="#261A18"/>
<path d="M106.801 35.2666C105.716 35.2666 104.73 35.0799 103.841 34.7066C102.97 34.3155 102.214 33.791 101.574 33.1333C100.934 32.4577 100.436 31.6933 100.081 30.8399C99.743 29.9688 99.5741 29.0444 99.5741 28.0666C99.5741 26.751 99.8763 25.551 100.481 24.4666C101.085 23.3644 101.93 22.4844 103.014 21.8266C104.099 21.151 105.37 20.8133 106.827 20.8133C108.285 20.8133 109.539 21.151 110.587 21.8266C111.654 22.4844 112.481 23.3555 113.067 24.4399C113.654 25.5244 113.947 26.6888 113.947 27.9333C113.947 28.1466 113.939 28.351 113.921 28.5466C113.903 28.7244 113.885 28.8755 113.867 28.9999H102.694C102.747 29.8177 102.97 30.5377 103.361 31.1599C103.77 31.7644 104.285 32.2444 104.907 32.5999C105.53 32.9377 106.196 33.1066 106.907 33.1066C107.69 33.1066 108.427 32.911 109.121 32.5199C109.832 32.1288 110.312 31.6133 110.561 30.9733L113.067 31.6933C112.765 32.3688 112.303 32.9822 111.681 33.5333C111.076 34.0666 110.356 34.4933 109.521 34.8133C108.685 35.1155 107.779 35.2666 106.801 35.2666ZM102.614 27.0533H111.041C110.987 26.2533 110.756 25.551 110.347 24.9466C109.956 24.3244 109.45 23.8444 108.827 23.5066C108.223 23.151 107.547 22.9733 106.801 22.9733C106.072 22.9733 105.396 23.151 104.774 23.5066C104.17 23.8444 103.672 24.3244 103.281 24.9466C102.89 25.551 102.667 26.2533 102.614 27.0533Z" fill="#261A18"/>
<path d="M117.01 23.6666H115.143V21.3999H117.01V20.8399C117.01 20.111 117.125 19.4177 117.357 18.7599C117.588 18.0844 117.934 17.4888 118.397 16.9733C118.859 16.4399 119.419 16.0222 120.077 15.7199C120.752 15.4177 121.534 15.2666 122.423 15.2666C123.081 15.2666 123.694 15.3377 124.263 15.4799C124.85 15.6222 125.383 15.8177 125.863 16.0666C126.361 16.2977 126.797 16.5466 127.17 16.8133L125.97 18.9999C125.579 18.6444 125.081 18.351 124.477 18.1199C123.872 17.8888 123.25 17.7733 122.61 17.7733C122.005 17.7733 121.499 17.9155 121.09 18.1999C120.699 18.4844 120.405 18.8577 120.21 19.3199C120.032 19.7822 119.943 20.2622 119.943 20.7599V21.3999H127.25V34.9999H124.317V23.6666H119.943V34.9999H117.01V23.6666Z" fill="#261A18"/>
<path d="M143.274 34.9999H140.341V27.1866C140.341 25.8888 140.127 24.9377 139.701 24.3333C139.292 23.7288 138.678 23.4266 137.861 23.4266C137.292 23.4266 136.723 23.5688 136.154 23.8533C135.603 24.1377 135.105 24.5288 134.661 25.0266C134.216 25.5066 133.896 26.0666 133.701 26.7066V34.9999H130.767V21.0533H133.434V23.8533C133.789 23.231 134.252 22.6977 134.821 22.2533C135.407 21.791 136.065 21.4355 136.794 21.1866C137.523 20.9377 138.296 20.8133 139.114 20.8133C139.949 20.8133 140.634 20.9644 141.167 21.2666C141.718 21.5688 142.145 21.9866 142.447 22.5199C142.767 23.0355 142.981 23.6399 143.087 24.3333C143.212 25.0088 143.274 25.7288 143.274 26.4933V34.9999Z" fill="#261A18"/>
<path d="M152.999 35.2666C151.914 35.2666 150.928 35.0799 150.039 34.7066C149.168 34.3155 148.412 33.791 147.772 33.1333C147.132 32.4577 146.634 31.6933 146.279 30.8399C145.941 29.9688 145.772 29.0444 145.772 28.0666C145.772 26.751 146.074 25.551 146.679 24.4666C147.283 23.3644 148.128 22.4844 149.212 21.8266C150.296 21.151 151.568 20.8133 153.025 20.8133C154.483 20.8133 155.736 21.151 156.785 21.8266C157.852 22.4844 158.679 23.3555 159.265 24.4399C159.852 25.5244 160.145 26.6888 160.145 27.9333C160.145 28.1466 160.136 28.351 160.119 28.5466C160.101 28.7244 160.083 28.8755 160.065 28.9999H148.892C148.945 29.8177 149.168 30.5377 149.559 31.1599C149.968 31.7644 150.483 32.2444 151.105 32.5999C151.728 32.9377 152.394 33.1066 153.105 33.1066C153.888 33.1066 154.625 32.911 155.319 32.5199C156.03 32.1288 156.51 31.6133 156.759 30.9733L159.265 31.6933C158.963 32.3688 158.501 32.9822 157.879 33.5333C157.274 34.0666 156.554 34.4933 155.719 34.8133C154.883 35.1155 153.976 35.2666 152.999 35.2666ZM148.812 27.0533H157.239C157.185 26.2533 156.954 25.551 156.545 24.9466C156.154 24.3244 155.648 23.8444 155.025 23.5066C154.421 23.151 153.745 22.9733 152.999 22.9733C152.27 22.9733 151.594 23.151 150.972 23.5066C150.368 23.8444 149.87 24.3244 149.479 24.9466C149.088 25.551 148.865 26.2533 148.812 27.0533Z" fill="#261A18"/>
</svg>
