<svg width="77" height="38" viewBox="0 0 77 38" fill="none" xmlns="http://www.w3.org/2000/svg">
<path d="M41.1047 0.128872C40.8552 0.167356 40.6153 1.08607 40.1331 1.56467C39.7804 1.91008 39.3402 1.88847 39.1064 2.3155C39.0176 2.47503 39.0464 2.74735 38.9456 3.00882C38.7489 3.53175 38.0557 3.5785 38.0557 4.14828C38.0532 4.76359 38.6338 4.88111 39.1363 5.3177C39.5286 5.66913 39.567 5.9114 40.0419 6.0817C40.4474 6.21971 41.0507 5.76866 41.5941 5.9306C42.0403 6.06379 42.4673 6.1597 42.5681 6.61789C42.6568 7.0401 42.562 7.69494 42.0211 7.61943C41.8387 7.59903 41.0483 7.33274 40.0768 7.43588C38.9048 7.56907 37.5674 7.95158 37.4367 9.25789C37.3647 9.98832 38.2679 10.8495 39.14 10.6744C39.7432 10.5556 39.4578 9.84445 39.7865 9.49896C40.217 9.05643 42.6568 11.0438 44.925 11.0438C45.8798 11.0438 46.5898 10.8028 47.2952 10.0639C47.3611 10.0075 47.4415 9.88638 47.5434 9.87915C47.6394 9.88638 47.8073 9.98109 47.8625 10.0219C49.6893 11.49 51.0699 14.4347 57.7834 14.4694C58.7273 14.4742 59.8032 14.9252 60.6812 15.7264C61.4645 16.4509 61.9227 17.5771 62.3677 18.7202C63.0394 20.4354 64.2437 22.1039 66.0692 23.9606C66.1689 24.0601 67.6718 25.2284 67.7917 25.316C67.8109 25.3279 67.9213 25.5918 67.883 25.7393C67.8385 26.8524 67.6766 30.0896 70.0899 30.236C70.6801 30.266 70.5253 29.851 70.5253 29.5655C70.5241 29.0018 70.4209 28.4416 70.7185 27.8647C71.125 27.0707 69.856 26.7048 69.8932 24.9885C69.9196 23.7087 68.8448 23.9269 68.2991 22.9518C67.9848 22.3869 67.7053 22.0871 67.7257 21.3961C67.8481 17.5076 66.8981 14.9528 66.4243 14.3255C66.0549 13.8517 65.749 13.6634 66.0872 13.4439C68.1012 12.1137 68.5582 10.8759 68.5582 10.8759C69.6293 8.35829 70.5925 6.05888 71.9203 5.04667C72.1878 4.83789 72.8739 4.3258 73.2949 4.12426C74.5339 3.54011 75.1865 3.18634 75.5463 2.83602C76.1161 2.28072 76.5658 1.12326 76.0201 0.421593C75.3412 -0.444431 74.1669 0.242861 73.6488 0.549874C69.946 2.74735 69.4002 6.62383 68.1179 8.85006C67.0948 10.6288 65.4312 11.935 63.9439 12.0418C62.8283 12.1245 61.6265 11.899 60.4294 11.3737C57.5183 10.0975 55.9253 8.44947 55.5499 8.15804C54.7678 7.55469 48.6961 1.59463 43.7771 1.35115C43.7771 1.35115 43.1666 0.128958 43.013 0.108554C42.6531 0.0629239 42.285 0.838979 42.0211 0.929034C41.7728 1.01168 41.3554 0.0881495 41.1047 0.128958V0.128872ZM19.4494 35.7007C18.9864 35.6898 18.593 35.3096 18.593 34.8395L18.5942 19.4962H13.5373V36.4095C13.5373 37.2383 14.2089 37.9149 15.0329 37.9149H23.8719C24.7019 37.9149 25.3652 37.2383 25.3652 36.4095V19.4962H20.3131L20.3083 34.8395C20.3083 35.3096 19.9148 35.6898 19.4494 35.7007ZM36.3812 19.4962H28.7273C27.8218 19.4962 27.0841 20.2327 27.0841 21.1479V37.9148H32.1457V22.5345C32.1493 22.0631 32.5307 21.6901 33.001 21.6901C33.4736 21.6901 33.8526 22.0547 33.8633 22.5213V37.9149H38.9047V22.5212C38.9108 22.0546 39.2898 21.69 39.7612 21.69C40.229 21.69 40.6152 22.0631 40.6188 22.5344V37.9149H45.6806V21.1479C45.6806 20.2327 44.9417 19.4962 44.0361 19.4962H36.3812ZM6.76979 22.5668C6.77341 22.0546 6.35601 21.69 5.91339 21.69H5.05457V31.006H5.91339C6.35963 31.006 6.7735 30.651 6.76979 30.1413V22.5668ZM10.1631 33.2862H5.05457V37.9149H0V19.4962H10.1956C11.1083 19.4962 11.8208 20.2375 11.8208 21.1551V31.6274C11.8208 32.5462 11.0807 33.2862 10.1631 33.2862ZM63.0262 33.7959C62.0103 33.7959 61.1574 34.6739 61.1574 35.7379C61.1574 36.8054 62.0103 37.6761 63.0586 37.6761C64.0986 37.6761 64.9406 36.8054 64.9406 35.7379C64.9406 34.6715 64.0986 33.7959 63.0585 33.7959H63.0262ZM65.3028 35.7318C65.3028 36.9828 64.3 38 63.0586 38C61.8039 38 60.7964 36.9901 60.7964 35.7318C60.7964 34.4976 61.8039 33.4661 63.0214 33.4661C64.3 33.4661 65.3028 34.4665 65.3028 35.7318Z" fill="#B1AAA9"/>
<path d="M62.8245 35.5877C63.1759 35.5877 63.3607 35.463 63.3607 35.2136C63.3607 34.9916 63.1819 34.8777 62.8401 34.8777H62.7393V35.5877H62.8245ZM64.1188 37.0439H63.5154L62.7393 36.0112V37.0439H62.2463V34.4327H62.7646C63.4687 34.4327 63.8428 34.699 63.8428 35.2076C63.8428 35.5469 63.6222 35.8481 63.3138 35.938L63.2779 35.9512L64.1188 37.0439ZM54.1668 31.0095V22.5283C54.1547 22.0593 53.7769 21.6995 53.3055 21.6995C52.8389 21.6995 52.4527 22.0737 52.4491 22.5415V31.0095H54.1668ZM54.1668 37.9147V33.2908H52.4491V37.9147H47.397V21.1477C47.397 20.2325 48.1346 19.4961 49.0402 19.4961H57.5756C58.4837 19.4961 59.2213 20.2325 59.2213 21.1477V37.9146L54.1668 37.9147Z" fill="#B1AAA9"/>
</svg>
