<svg width="102" height="38" viewBox="0 0 102 38" fill="none" xmlns="http://www.w3.org/2000/svg">
<path d="M2.54121 10.3963L0.501832 10.5333C0.46566 10.5406 0.430861 10.5488 0.396978 10.5584C0.196429 10.618 0.0641026 10.7356 0 10.911V24.9128C0.0540293 25.1578 0.175824 25.2832 0.365385 25.2874H2.14423C2.32234 25.2842 2.45559 25.1633 2.54441 24.9256L2.53526 19.335C3.50916 19.4646 4.44872 19.5094 5.35211 19.4682L7.77885 24.9385C7.78052 24.9413 7.78175 24.9444 7.78251 24.9476C7.88324 25.1582 8.03114 25.2713 8.22665 25.2874H10.1932C10.4487 25.2187 10.5632 25.0172 10.5366 24.6839L7.89972 18.7123C8.65201 18.3661 9.23855 17.911 9.6598 17.3464C10.4606 16.2993 10.6342 14.9028 10.1804 13.1569C10.1761 13.1411 10.1719 13.1252 10.168 13.1093C9.67811 11.6807 8.59066 10.7942 6.90568 10.4504C5.68361 10.2764 4.22894 10.2581 2.54121 10.3963ZM5.76511 12.7086V12.6963L5.78114 12.7091C7.02289 12.8904 7.70971 13.5983 7.84249 14.8336C7.84707 16.1074 7.10073 16.8771 5.60348 17.1431V17.1367C4.58379 17.2054 3.55952 17.1839 2.53159 17.0703L2.538 12.8579H2.56044C2.80403 12.6912 3.87225 12.6418 5.76557 12.7091L5.76511 12.7086ZM37.1392 17.5626L37.19 18.5154L33.7184 18.8139C32.245 19.0012 31.3196 19.7146 30.9423 20.9545C30.7907 22.0136 30.8361 22.8748 31.0783 23.5369C31.5133 24.6729 32.3544 25.3199 33.6007 25.4783C34.9203 25.5232 36.2216 25.2713 37.5046 24.7224C38.168 25.2123 38.7853 25.4398 39.3562 25.405C39.3651 25.4016 39.3736 25.3974 39.3819 25.3927C39.5348 25.2993 39.6186 25.1811 39.6328 25.0401L39.6291 17.0887C39.4542 16.118 39.1438 15.4266 38.6983 15.0145C38.0316 14.4746 37.2124 14.1972 36.2395 14.1821C34.7713 14.2315 33.3075 14.3707 31.8562 14.5987C31.6662 14.6569 31.571 14.7626 31.5705 14.916L31.6245 16.5108C31.7024 16.7072 31.8429 16.8002 32.0467 16.7901C32.0559 16.791 32.0659 16.791 32.0756 16.7901C34.0504 16.5667 35.4331 16.5021 36.2239 16.5964C36.2292 16.5969 36.2346 16.5969 36.2399 16.5964C36.7413 16.742 37.0412 17.0639 37.1387 17.5621L37.1392 17.5626ZM34.62 20.5795H34.6424C35.4936 20.4934 36.3365 20.4572 37.1708 20.4719V22.9147C36.3594 23.1766 35.4794 23.3387 34.5311 23.4C33.7743 23.3785 33.3755 22.9202 33.3333 22.0245L33.3397 22.0154C33.3553 21.1459 33.7821 20.6669 34.62 20.5795ZM20.5861 24.1752C21.2958 23.3409 21.6983 21.9952 21.7935 20.1381C21.7994 17.9696 21.375 16.4018 20.5197 15.4339C19.6154 14.5699 18.4061 14.1495 16.8919 14.1729C15.3768 14.15 14.1676 14.5703 13.2647 15.4339C12.408 16.4023 11.9835 17.9705 11.9908 20.1381C12.0847 21.9943 12.4872 23.34 13.1978 24.1752C13.9405 25.0145 15.1722 25.4517 16.8919 25.4875C18.6117 25.4517 19.8429 25.0145 20.5861 24.1752ZM19.2491 20.1189C19.2853 22.2517 18.4995 23.3029 16.8919 23.2732C15.2843 23.3025 14.4986 22.2512 14.5353 20.1189C14.402 17.5548 15.1877 16.3277 16.8919 16.4376C18.5966 16.3277 19.3823 17.5548 19.2486 20.1189H19.2491ZM26.625 12.2572C26.5962 12.0841 26.4625 11.9751 26.2244 11.9302L24.4364 12.3652C24.2715 12.4504 24.174 12.5749 24.1438 12.7402V14.3886H23.1822C22.9739 14.4453 22.8535 14.5731 22.8205 14.7732V16.2851C22.8407 16.5195 22.9423 16.65 23.125 16.6756H24.1447V22.0603C24.2134 24.2535 25.0408 25.395 26.6255 25.4843C27.6676 25.5557 28.5801 25.4829 29.3636 25.2645C29.5009 25.2494 29.5801 25.1234 29.6016 24.8872C29.6036 24.8755 29.6048 24.8637 29.6053 24.8519L29.5609 23.5209C29.5183 23.2814 29.4103 23.1477 29.2367 23.1212C29.2261 23.1192 29.2154 23.1179 29.2047 23.1175L27.4098 23.1656C26.9244 23.0584 26.6635 22.6427 26.6255 21.9169V16.6761H29.2079C29.3819 16.6509 29.4995 16.5653 29.5604 16.4192V14.7228C29.5572 14.5832 29.4354 14.4724 29.1955 14.3895H26.6255V12.2576L26.625 12.2572ZM47.7747 14.3547C47.7639 14.3531 47.7532 14.3508 47.7427 14.3478C46.7266 14.4256 45.7463 14.8258 44.8013 15.5488V14.7384C44.7601 14.5479 44.6364 14.4376 44.4299 14.4087H42.7207C42.495 14.4398 42.3553 14.5735 42.3017 14.8084V24.868C42.3567 25.0854 42.4666 25.2123 42.6314 25.2494H44.5348C44.6763 25.1802 44.7651 25.079 44.8013 24.9444V17.9247C45.9011 17.1125 46.8722 16.6871 47.7143 16.6477C47.9006 16.6202 48.0279 16.4943 48.0952 16.2695V14.7004C48.054 14.514 47.9473 14.3986 47.7747 14.3542V14.3547ZM49.7633 14.4018C49.543 14.482 49.4244 14.6514 49.4075 14.9101L51.8342 24.1537C52.0412 24.7663 52.4194 25.1289 52.9679 25.2434C53.1831 25.2544 53.391 25.2562 53.5907 25.2494C53.5769 25.791 53.3677 26.2384 52.9647 26.59C52.5975 26.791 52.1795 26.8702 51.7102 26.8281L50.1474 26.7365C49.7353 26.6679 49.5279 26.8135 49.5247 27.1715L49.5472 28.1651C49.6003 28.4064 49.7289 28.5497 49.9345 28.5946C49.9844 28.607 50.0362 28.623 50.0902 28.6418C50.994 28.8098 51.87 28.911 52.717 28.9467L52.7331 28.9408C53.6126 28.9527 54.353 28.6042 54.9538 27.895C55.2981 27.4137 55.5481 26.9362 55.7033 26.4627L58.7143 14.9321C58.7418 14.6354 58.6204 14.4582 58.3489 14.4018H56.6717C56.5169 14.4362 56.3919 14.536 56.2972 14.7004L54.1946 22.7942C54.1474 22.8927 54.0806 22.8927 53.9945 22.7942L51.8626 14.7164C51.7628 14.5278 51.6314 14.4229 51.4689 14.4018H49.7633Z" fill="#B1AAA9"/>
<path d="M96.3273 6.06365C96.0662 5.74773 95.7756 5.45735 95.4596 5.19644C94.4729 5.45743 93.596 5.97162 92.8295 6.74039C92.4642 6.42562 92.0837 6.12886 91.6894 5.8512C92.2526 4.90889 92.5237 3.92721 92.5022 2.9066C92.1789 2.65522 91.8231 2.44883 91.4445 2.29305C90.5663 2.79305 89.8552 3.511 89.3131 4.4469C88.8638 4.23825 88.406 4.04853 87.9408 3.87821C88.0809 3.39745 88.1537 2.90111 88.1606 2.38874C88.1684 1.83197 88.102 1.31411 87.96 0.835632C87.5852 0.678123 87.191 0.571261 86.7879 0.517867C86.0553 1.24406 85.5521 2.12409 85.2792 3.15752C84.8005 3.06901 84.3168 3.00953 83.8309 2.9794C83.8386 2.47401 83.7787 1.96985 83.6528 1.48032C83.5191 0.944607 83.3222 0.461548 83.0621 0.0316029H83.0397L82.776 0.0128299C82.6704 0.00404859 82.5646 -0.000228739 82.4587 9.42117e-06C82.346 9.42117e-06 82.2403 0.00413024 82.1409 0.0128299L81.8456 0.0316029C81.3309 0.897903 81.0731 1.8805 81.0731 2.9794C80.6244 3.00688 80.1395 3.0664 79.6189 3.15752C79.4893 2.66675 79.2969 2.19476 79.0466 1.75321C78.7801 1.26832 78.4637 0.853489 78.0969 0.508251C77.6528 0.577848 77.2618 0.684075 76.9248 0.825558C76.6565 1.80404 76.6624 2.8219 76.9445 3.87821C76.5164 4.03298 76.0589 4.2262 75.5718 4.45651C75.0086 3.50779 74.2938 2.78664 73.428 2.29351C73.3364 2.32739 73.2384 2.37272 73.1327 2.42995C73.0423 2.47553 72.9541 2.52534 72.8685 2.57922C72.8171 2.60188 72.768 2.62949 72.7219 2.66164L72.373 2.89378C72.352 3.90157 72.6185 4.88737 73.1734 5.85074C72.7586 6.1621 72.4042 6.44094 72.1098 6.68636C71.3282 5.90523 70.4477 5.39149 69.4669 5.14561C69.1526 5.40286 68.8632 5.68907 68.6024 6.00047C68.8634 6.99314 69.3767 7.87318 70.1432 8.64012C69.7769 9.09753 69.4784 9.4881 69.2476 9.81228C68.2815 9.25504 67.3025 8.98719 66.3094 9.00825C66.1903 9.1653 66.0814 9.32693 65.982 9.49451L65.6995 10.0563C66.1903 10.9354 66.912 11.6534 67.863 12.2102C67.5956 12.8434 67.4202 13.2766 67.335 13.5092C66.2577 13.2276 65.2366 13.2234 64.2732 13.4968C64.1249 13.8416 64.0191 14.234 63.9559 14.6717C64.667 15.4025 65.5502 15.9057 66.6047 16.1809L66.4266 17.5975C65.9169 17.5981 65.4091 17.6611 64.9147 17.7853C64.4063 17.9103 63.9192 18.1103 63.4697 18.3787C63.4209 18.7817 63.4209 19.189 63.4697 19.592C64.336 20.1067 65.3181 20.3645 66.4175 20.3645C66.4381 20.603 66.5054 21.0852 66.6171 21.8095C65.5608 22.1122 64.6766 22.6227 63.9651 23.3407C64.0287 23.7491 64.1345 24.1401 64.2828 24.5128C65.2613 24.7944 66.2819 24.7912 67.3451 24.5032C67.5102 24.945 67.6966 25.3785 67.9037 25.8022C66.955 26.3507 66.2343 27.0655 65.7407 27.9464C65.7893 28.0792 65.8488 28.2028 65.9188 28.3146C65.9311 28.3404 65.946 28.365 65.9632 28.3878C66.0814 28.6213 66.2073 28.8219 66.3405 28.9918C67.3405 29.0128 68.3231 28.7491 69.2888 28.2001C69.5679 28.5957 69.8635 28.9794 70.1748 29.3503C69.3936 30.1168 68.8799 30.9941 68.6345 31.9803C68.8799 32.3045 69.1647 32.5939 69.4884 32.848C70.4545 32.5939 71.3346 32.0824 72.1285 31.3132C72.5004 31.6256 72.885 31.9224 73.2815 32.2028C72.7311 33.1873 72.4664 34.169 72.487 35.1474C72.8053 35.3951 73.1542 35.5994 73.5356 35.7605C74.4147 35.2756 75.1327 34.5504 75.6894 33.5847C76.1679 33.7898 76.5937 33.9625 76.9664 34.1021C76.8382 34.5887 76.771 35.0893 76.7664 35.5925C76.7599 36.1493 76.8259 36.6667 76.9664 37.1456C77.3392 37.2999 77.7297 37.4093 78.1386 37.4725C78.4985 37.1213 78.8117 36.7019 79.0791 36.2147C79.3332 35.7637 79.5186 35.299 79.6377 34.8201C80.074 34.9135 80.5598 34.9803 81.0956 35.0206C81.1107 36.1342 81.3712 37.1172 81.8772 37.9679C81.8982 37.9679 81.9229 37.9712 81.9504 37.9771L82.1949 38H82.808L83.091 37.9679C83.6139 37.1081 83.8749 36.1259 83.8749 35.0206C84.339 34.9805 84.8004 34.9135 85.2567 34.8201C85.5534 35.8983 86.0608 36.7821 86.7783 37.4725C87.2151 37.4089 87.6052 37.3063 87.9504 37.1644C88.232 36.1864 88.2297 35.1653 87.9413 34.1026C88.3625 33.9478 88.8021 33.7582 89.2599 33.5339C89.8227 34.4908 90.5402 35.2125 91.4129 35.6969C91.7792 35.5421 92.1285 35.342 92.4614 35.0971C92.4825 34.0971 92.2178 33.1117 91.667 32.1392C92.0455 31.8695 92.4121 31.5835 92.7659 31.2821C93.5686 32.0568 94.4527 32.5678 95.4188 32.8159C95.7398 32.5653 96.0297 32.2773 96.2824 31.9579C96.0223 30.9794 95.5086 30.1003 94.7416 29.3187C95.0558 28.9525 95.3487 28.5687 95.6189 28.169C96.5823 28.717 97.564 28.9808 98.5631 28.9593L98.5951 28.9281C98.667 28.8306 98.7517 28.7001 98.8492 28.5371C98.9403 28.3823 99.0173 28.2491 99.0809 28.1364L99.1029 28.0925C99.1308 28.0224 99.1551 27.9629 99.1762 27.9148C98.6981 27.0545 97.9797 26.337 97.0228 25.761C97.156 25.4794 97.336 25.0495 97.5631 24.4707C98.0479 24.6044 98.5429 24.6749 99.0493 24.6813C99.6061 24.6891 100.124 24.6227 100.603 24.4808C100.751 24.1355 100.857 23.745 100.92 23.3086C100.194 22.576 99.314 22.0728 98.2801 21.7995C98.363 21.37 98.4257 20.908 98.4678 20.4148C99.5667 20.4148 100.553 20.1538 101.426 19.6337C101.476 19.2331 101.476 18.8288 101.426 18.4203C100.568 17.8988 99.5859 17.6383 98.4806 17.6383C98.4361 17.1639 98.3725 16.6914 98.2902 16.2221C98.7804 16.0927 99.2521 15.9014 99.694 15.6529C100.181 15.3846 100.596 15.071 100.939 14.7129C100.869 14.2619 100.765 13.8713 100.625 13.5408C99.6533 13.2592 98.6354 13.2624 97.5722 13.5504C97.4513 13.2051 97.2714 12.772 97.0319 12.2514C97.8286 11.7935 98.4628 11.2244 98.9349 10.5421L99.1441 10.2244C99.1656 10.1822 99.1871 10.1433 99.2082 10.1072C99.1119 9.87875 98.9949 9.65959 98.8588 9.45239C98.8229 9.37547 98.7814 9.30125 98.7348 9.23032C98.6906 9.16926 98.644 9.11 98.5951 9.05266C97.5951 9.03114 96.6143 9.29488 95.6501 9.84341C95.3762 9.45213 95.0871 9.0718 94.7833 8.7033C95.558 7.92217 96.0727 7.04213 96.3273 6.06365ZM92.9889 8.75733C93.0521 8.65797 93.1533 8.60852 93.2938 8.60852C93.4477 8.60852 93.5777 8.67171 93.6839 8.79854C95.3039 10.5037 96.4417 12.5343 97.0951 14.8915C97.7796 17.3626 97.8359 19.8626 97.2636 22.3915C97.2302 22.5243 97.1675 22.6264 97.0763 22.696C96.971 22.7743 96.8465 22.7921 96.705 22.7495L94.4463 22.0861C94.3388 22.0555 94.2454 21.988 94.1826 21.8956C94.1051 21.7924 94.0669 21.665 94.075 21.5362C94.8561 17.4941 93.9623 14.043 91.3936 11.1841C91.3331 11.1457 91.2831 11.0928 91.2482 11.0302C91.2134 10.9676 91.1947 10.8972 91.194 10.8256C91.1849 10.6644 91.238 10.5206 91.3524 10.3933L92.9889 8.75733ZM84.1166 8.36677C84.1862 8.31594 84.3089 8.31182 84.4848 8.35394C85.7531 8.6566 86.8772 9.09433 87.8556 9.66622C88.8272 10.2294 89.7631 10.9821 90.6633 11.9245C90.8327 12.1003 90.8854 12.2486 90.8218 12.3691C90.7879 12.4327 90.6725 12.5133 90.4756 12.6104L85.1707 15.1772C84.9738 15.2683 84.8025 15.2715 84.6565 15.1864C84.5081 15.1104 84.4266 14.9634 84.412 14.745L83.9893 8.8718C83.9678 8.59845 84.0109 8.43041 84.1166 8.36677ZM86.3332 7.76329C85.0804 7.32718 83.7628 7.10596 82.4362 7.10898C81.0914 7.10898 79.7888 7.32693 78.5287 7.76329C77.3198 8.17888 76.1884 8.79289 75.1812 9.58014C75.0264 9.70743 74.89 9.77382 74.7714 9.78023C74.6441 9.79534 74.5237 9.74222 74.4092 9.62134L72.8369 7.88096C72.634 7.63325 72.6835 7.38646 72.9861 7.14058C74.2968 6.09455 75.7701 5.27044 77.3474 4.70101C78.9798 4.11394 80.7015 3.81418 82.4362 3.81503C84.1766 3.81503 85.8712 4.11036 87.5186 4.70101C89.0814 5.27061 90.5383 6.0838 91.8895 7.14058C92.2073 7.386 92.2636 7.63279 92.0576 7.88096L90.4857 9.62134C90.373 9.74222 90.2535 9.79534 90.1262 9.78023C90.0058 9.77382 89.8653 9.70697 89.7041 9.58014C88.6888 8.792 87.5497 8.17802 86.3332 7.76329ZM92.0067 15.25C92.2311 15.0957 92.3968 15.0472 92.5022 15.1044C92.5786 15.1378 92.6423 15.2441 92.6926 15.4217C93.0658 16.6731 93.2522 17.8622 93.2522 18.989C93.2522 20.1241 93.0658 21.3104 92.6926 22.5499C92.623 22.7889 92.5246 22.9089 92.3978 22.9089C92.3126 22.9089 92.1826 22.848 92.0067 22.7271L87.1276 19.424C86.95 19.3031 86.8611 19.1584 86.8611 18.989C86.8611 18.8214 86.95 18.6777 87.1276 18.5568L92.0067 15.25ZM82.4362 15.2184C83.4779 15.2184 84.373 15.5893 85.1203 16.3301C85.8593 17.0691 86.2283 17.9629 86.2283 19.011C86.2283 20.0531 85.8593 20.9478 85.1203 21.6955C84.3726 22.4341 83.4779 22.8036 82.4362 22.8036C81.3946 22.8036 80.5035 22.4341 79.765 21.6955C79.0186 20.9478 78.6464 20.0531 78.6464 19.011C78.6464 17.9629 79.0191 17.0691 79.765 16.3301C80.5035 15.5893 81.3941 15.2184 82.4362 15.2184ZM84.4339 23.2138C84.4468 23.0037 84.5241 22.8567 84.6661 22.772C84.814 22.6873 84.9866 22.6905 85.1835 22.7821L90.4857 25.3484C90.7311 25.4666 90.8579 25.5865 90.8666 25.707C90.8666 25.7985 90.803 25.9075 90.6762 26.0343C89.7801 26.9849 88.8433 27.7422 87.8648 28.3054C86.8927 28.8622 85.7705 29.2953 84.4976 29.6044C84.2586 29.6598 84.107 29.6314 84.0438 29.5192C84.0012 29.4487 83.9861 29.3049 83.9994 29.0865L84.4339 23.2138ZM93.4426 23.5408C93.5191 23.3649 93.6244 23.2495 93.7604 23.1946C93.8505 23.1589 93.9499 23.1544 94.0429 23.1818L96.3048 23.9538C96.4316 23.9963 96.5191 24.0701 96.5685 24.1758C96.6258 24.2821 96.6258 24.4048 96.5685 24.5444C95.4417 27.4034 93.6033 29.717 91.0539 31.4849C88.4577 33.2871 85.585 34.1886 82.4362 34.1886C79.2828 34.1886 76.4106 33.2908 73.819 31.495C71.2833 29.7349 69.4527 27.4258 68.3259 24.5673C68.2709 24.4185 68.2709 24.288 68.3259 24.1758C68.3767 24.0705 68.466 23.9963 68.5933 23.9538L70.8515 23.1818C70.9426 23.1543 71.0379 23.1543 71.1377 23.1818C71.2645 23.2321 71.3598 23.3283 71.4234 23.468C72.3085 25.6786 73.7471 27.467 75.7403 28.8329C77.7627 30.2198 79.9948 30.9139 82.4362 30.9139C84.8804 30.9139 87.1056 30.2303 89.113 28.8649C91.0846 27.5261 92.5283 25.7514 93.4426 23.5408ZM73.7453 10.8256C73.7445 10.8973 73.7257 10.9676 73.6908 11.0302C73.6559 11.0929 73.6058 11.1457 73.5452 11.1841C70.9742 14.0366 70.0763 17.4876 70.8515 21.5362C70.8579 21.6699 70.8263 21.7894 70.7563 21.8956C70.691 21.9899 70.594 22.0575 70.4829 22.0861L68.2311 22.75C68.0846 22.7921 67.9619 22.7743 67.863 22.696C67.7714 22.6323 67.7082 22.5307 67.672 22.391C67.1024 19.8622 67.1588 17.3668 67.8405 14.9039C68.4884 12.5513 69.6221 10.5238 71.2425 8.82098C71.3694 8.69369 71.4999 8.62592 71.6331 8.61768C71.6933 8.61359 71.7537 8.62416 71.8089 8.64848C71.8642 8.6728 71.9128 8.71015 71.9504 8.75733L73.5772 10.3933C73.6954 10.5206 73.7512 10.6644 73.7453 10.8256ZM74.1038 12.4103C74.0342 12.2981 74.0841 12.1497 74.2535 11.9657L76.9445 9.78023C76.9861 9.75275 77.0255 9.72849 77.0612 9.70697C78.0676 9.12913 79.1903 8.69277 80.4321 8.39882C80.607 8.35623 80.7306 8.35944 80.8002 8.40797C80.9055 8.47803 80.9486 8.64744 80.9275 8.91622L80.5049 14.7862C80.4838 15.0046 80.4023 15.1525 80.2604 15.2312C80.1765 15.2847 80.0766 15.3072 79.9779 15.2949L79.7741 15.2312C79.7682 15.2225 79.7613 15.2184 79.7549 15.2184L74.4536 12.652C74.2631 12.5696 74.1468 12.489 74.1038 12.4103ZM72.5319 15.1044C72.6079 15.1044 72.7384 15.1635 72.9225 15.2821L77.7888 18.598C77.9733 18.7189 78.0653 18.8636 78.0653 19.0334C78.0653 19.2006 77.977 19.3448 77.8021 19.4652L72.9225 22.772C72.6958 22.9267 72.5301 22.9753 72.4234 22.9185C72.3538 22.8842 72.2911 22.7784 72.2366 22.6003C71.8621 21.3553 71.6743 20.1662 71.6743 19.0334C71.6743 17.9071 71.8621 16.7166 72.2366 15.4629C72.3066 15.2299 72.4046 15.1104 72.5319 15.1044ZM79.8378 22.8549C80.0287 22.7633 80.1977 22.7605 80.346 22.8457C80.4944 22.9299 80.5759 23.0778 80.5905 23.2898L81.0228 29.1598C81.0438 29.4354 81.0044 29.6081 80.9051 29.6777C80.8355 29.7198 80.7091 29.7198 80.5269 29.6777C79.265 29.375 78.1414 28.9418 77.1569 28.3782C76.1849 27.815 75.2485 27.0582 74.3492 26.1071C74.1798 25.9313 74.1262 25.7875 74.1899 25.6754C74.2325 25.6053 74.3479 25.5211 74.5365 25.4212L79.8378 22.8549ZM69.8158 26.6566L71.8968 25.4533L71.6423 24.9986L69.5745 26.2028L69.8158 26.6566ZM75.4033 30.3132L75.6894 29.8782C76.238 30.1804 76.5722 30.3608 76.6931 30.4176L76.912 30.0586C76.5479 29.8745 76.0905 29.5994 75.5402 29.2331L74.1775 31.2312C74.6726 31.5586 75.1768 31.8721 75.6894 32.1712L75.912 31.8123L74.8222 31.1676L75.1812 30.6401L75.912 31.0719L76.1217 30.745C75.9033 30.6245 75.6638 30.4803 75.4033 30.3132ZM73.5644 27.619L73.2686 27.9052L73.841 28.4519L72.5196 29.9222L72.9225 30.2592L74.1899 28.7596L74.8126 29.2234L75.0667 28.9061C74.4463 28.3997 73.9458 27.9712 73.5644 27.6195V27.619ZM72.4147 26.2349C72.3231 26.0737 72.243 25.951 72.1734 25.8663L70.1555 27.2285C70.2192 27.3196 70.3181 27.4528 70.4513 27.6287L71.6647 26.7839L71.0832 28.4515C71.1047 28.4725 71.1574 28.5408 71.2421 28.6548C71.3062 28.7459 71.3657 28.8127 71.4234 28.8549L73.2911 27.2477L72.9637 26.9203L71.846 27.8828L72.4147 26.2344V26.2349ZM81.4229 31.2944C81.2197 31.3008 81.0649 31.2935 80.9591 31.2724L80.7906 32.7399L80.0823 31.1452L79.6601 31.0408L79.1102 33.4071C79.216 33.4345 79.3813 33.462 79.6056 33.4895L79.9142 32.054L80.6189 33.6703L81.1501 33.7436L81.4229 31.2944ZM78.5292 30.7358L77.4522 30.3223L76.5122 32.5307C76.6602 32.5978 76.8117 32.6569 76.966 32.7079L77.3474 31.7807L77.8208 31.9803L77.8529 33.0353C77.9733 33.0856 78.1459 33.1392 78.3703 33.1941L78.297 32.0765C78.4582 32.0549 78.596 31.9776 78.7105 31.8443C78.8158 31.7166 78.8753 31.5687 78.8881 31.3993L78.901 31.2628C78.8794 31.0018 78.7558 30.8265 78.5287 30.7358H78.5292ZM78.3195 31.1039C78.3959 31.1401 78.4376 31.1928 78.4468 31.2628C78.4527 31.2859 78.4538 31.3099 78.45 31.3334C78.4461 31.3569 78.4374 31.3793 78.4243 31.3993C78.4021 31.4767 78.3537 31.544 78.2874 31.5897C78.258 31.6135 78.2227 31.629 78.1853 31.6347C78.1479 31.6403 78.1096 31.6359 78.0745 31.6218L77.5255 31.4093V31.3993L77.716 30.8723L78.3195 31.1039ZM86.8511 30.5545L86.3556 30.7225L87.1473 32.9844C87.352 32.9277 87.5141 32.8745 87.6327 32.8256L86.8511 30.5545ZM85.8923 31.3132L85.7842 30.9226C84.8419 31.1218 84.1954 31.2491 83.8428 31.304L83.9069 31.7166L84.6752 31.5994L85.025 33.5531L85.5424 33.4478L85.1299 31.5169L85.8923 31.3132ZM82.4903 31.3581L82.4811 31.3993L81.699 33.7344L82.1853 33.7564L82.3218 33.3338L83.3671 33.3022L83.5127 33.712L83.9893 33.6607L83.0621 31.3993L83.0301 31.3356L82.4898 31.3585L82.4903 31.3581ZM82.7856 31.908L83.1665 32.8668L82.4582 32.8988L82.7856 31.9075V31.908ZM87.7283 30.891C87.7283 31.0394 87.7631 31.2088 87.8332 31.3993L87.8964 31.5046C87.9721 31.6442 88.0762 31.7663 88.2021 31.8631C88.328 31.9599 88.4728 32.0291 88.6272 32.0664C88.9509 32.1488 89.2544 32.1099 89.536 31.9492C89.7604 31.8072 89.922 31.6241 90.0214 31.3993C90.0979 31.2299 90.1359 31.0604 90.1359 30.891C90.1359 30.6877 90.0832 30.4908 89.977 30.3004C89.8973 30.164 89.7909 30.0451 89.6643 29.9507C89.5376 29.8563 89.3933 29.7883 89.2398 29.7509C89.0884 29.7083 88.9299 29.6967 88.7738 29.7168C88.6178 29.737 88.4675 29.7884 88.3318 29.8681C87.944 30.0925 87.743 30.4332 87.7283 30.8915V30.891ZM88.1606 30.8915C88.1606 30.5902 88.2902 30.369 88.5507 30.2276C88.6372 30.1757 88.7331 30.1414 88.8329 30.1266C88.9326 30.1119 89.0344 30.1169 89.1322 30.1415C89.3373 30.1987 89.4967 30.3182 89.6084 30.5005C89.6784 30.6424 89.7137 30.7724 89.7137 30.8915C89.7137 31.082 89.6468 31.2514 89.5136 31.3997C89.477 31.4565 89.4138 31.5096 89.3231 31.5586C89.1665 31.6487 88.9837 31.6821 88.8053 31.6534C88.6274 31.6286 88.4653 31.5379 88.3511 31.3993L88.2686 31.2724C88.2075 31.154 88.1707 31.0244 88.1606 30.8915ZM91.1716 27.7024C90.9957 27.8993 90.89 28.0124 90.8538 28.0421L91.8671 29.1186L90.1899 28.6232C90.0988 28.6932 89.9793 28.7766 89.8309 28.8736L91.276 30.8306L91.6574 30.5128L90.7714 29.3407L92.4609 29.8457C92.6707 29.6703 92.8007 29.5508 92.852 29.4872L91.1716 27.7024ZM94.4564 27.5559C94.547 27.435 94.6001 27.364 94.6143 27.343L92.2073 26.5522L91.8671 26.9744L93.1794 29.1186L93.5063 28.7692L93.2613 28.3883L93.9161 27.5746L94.3286 27.7335L94.4564 27.5554V27.5559ZM93.4742 27.4382L93.0301 27.9973L92.493 27.1113L93.4742 27.4382ZM95.8186 25.3576L95.45 25.1575L94.8561 26.2024L93.1157 25.2303L92.8836 25.6438L95.0054 26.8159L95.8186 25.3576ZM84.8662 16.581C84.1908 15.9121 83.3804 15.5774 82.4362 15.5774C81.4935 15.5774 80.6876 15.9116 80.0186 16.581C79.3437 17.2505 79.0054 18.06 79.0054 19.011C79.0054 19.956 79.3437 20.7656 80.0186 21.4414C80.6876 22.1099 81.4935 22.4446 82.4362 22.4446C83.3804 22.4446 84.1908 22.1104 84.8657 21.4414C85.5351 20.7656 85.8703 19.956 85.8703 19.011C85.8703 18.0604 85.5351 17.2505 84.8657 16.581H84.8662ZM84.1166 17.6387C84.1652 17.6937 84.2109 17.7532 84.2535 17.8169L84.3167 17.9249C84.5136 18.2615 84.612 18.6236 84.612 19.011V19.0339L84.5388 19.5925C84.4816 19.7683 84.4042 19.9405 84.3071 20.1099C84.1228 20.4278 83.8606 20.6937 83.5452 20.8823C83.4747 20.9226 83.4078 20.9602 83.3446 20.9968L82.6807 21.1648C82.607 21.1734 82.5329 21.1776 82.4587 21.1777H82.3854C82.0939 21.1716 81.8065 21.1068 81.5406 20.9872L81.4765 20.9551C81.4133 20.9194 81.3499 20.8843 81.286 20.8498C80.9468 20.6363 80.6731 20.3332 80.4953 19.9739C80.4758 19.9278 80.4578 19.8811 80.4413 19.8338C80.3428 19.6001 80.2889 19.3501 80.2824 19.0966V19.0655V19.0334V19.011V18.9382V18.8933L80.4504 18.1662C80.4866 18.0879 80.5255 18.0137 80.5681 17.9437C80.7602 17.6036 81.0415 17.3224 81.3817 17.1305C81.4793 17.0756 81.5805 17.0298 81.6867 16.9941L81.8671 16.9304L81.9087 16.3397H82.8584L82.8904 16.8988C83.2567 16.9771 83.5773 17.1319 83.8524 17.3626L84.0942 17.6071C84.1044 17.6156 84.1122 17.6267 84.1166 17.6392V17.6387ZM76.4165 6.0229C76.1775 5.81686 75.9513 5.77061 75.7403 5.88279C75.2485 6.13691 74.884 6.33838 74.6441 6.48627L75.8163 8.55404L76.2897 8.25871L75.8479 7.50917L76.2709 7.27702L77.0301 7.84937L77.5154 7.62638L76.6487 6.98169C76.699 6.89103 76.7279 6.80633 76.7343 6.72803C76.7554 6.46704 76.6496 6.23215 76.4165 6.0229ZM76.2073 6.72803C76.2091 6.75978 76.2021 6.79142 76.187 6.81941C76.1719 6.84739 76.1492 6.87061 76.1217 6.88646L75.6162 7.14058L75.308 6.62318L75.8163 6.32739C75.9284 6.2642 76.0269 6.28526 76.1116 6.39149C76.1491 6.43841 76.177 6.49233 76.1935 6.55011C76.21 6.60788 76.2148 6.66836 76.2077 6.72803H76.2073ZM80.1235 4.84754L80.8863 4.74222L81.0956 6.7088L81.613 6.66439L81.4129 4.70101L82.1853 4.64699L82.1533 4.22483C81.4569 4.2641 80.7626 4.33514 80.0727 4.43774L80.123 4.84754H80.1235ZM77.7476 5.16484C77.5401 5.38047 77.4259 5.66918 77.4298 5.96841L77.4426 6.08288C77.4765 6.4153 77.6203 6.68636 77.8749 6.89607C78.129 7.11631 78.4179 7.20834 78.7416 7.17263C79.0431 7.14885 79.3234 7.0086 79.5232 6.7816C79.7325 6.54854 79.8378 6.27794 79.8378 5.96841V5.87318C79.8269 5.71487 79.7828 5.56063 79.7083 5.42052C79.6339 5.2804 79.5307 5.15755 79.4055 5.05999C79.2857 4.95712 79.1461 4.87984 78.9953 4.83291C78.8446 4.78598 78.6858 4.77039 78.5287 4.7871C78.2299 4.80955 77.9507 4.94455 77.7476 5.16484ZM77.884 6.03206V5.96841C77.879 5.8723 77.8933 5.77616 77.926 5.68565C77.9587 5.59514 78.0092 5.51209 78.0745 5.4414C78.1388 5.36892 78.2168 5.30995 78.304 5.26789C78.3913 5.22584 78.486 5.20155 78.5827 5.19644C78.7943 5.18407 78.9811 5.24451 79.1423 5.37776C79.3034 5.511 79.3941 5.68362 79.4152 5.89515V5.96841C79.4152 6.1653 79.3483 6.33838 79.2151 6.48627C79.0814 6.63462 78.9133 6.71933 78.7105 6.74039C78.6114 6.7486 78.5117 6.73681 78.4172 6.70575C78.3227 6.67468 78.2355 6.62496 78.1606 6.55953C77.9912 6.41942 77.8996 6.2436 77.884 6.03206ZM87.455 5.60028C87.4399 5.28252 87.3208 5.08838 87.096 5.01878C86.3909 4.79213 85.9925 4.66851 85.901 4.64699L85.2155 6.92812C85.3552 6.97025 85.5383 7.01695 85.765 7.06777L85.9843 6.23215L86.4513 6.3686L86.5658 7.30907L87.074 7.50917L86.9243 6.43224C87.1024 6.39836 87.2403 6.29671 87.3378 6.1273C87.4284 5.96429 87.4678 5.78847 87.455 5.60028ZM86.8199 5.38737C86.9252 5.41484 86.9788 5.48581 86.9788 5.60028C86.9719 5.70376 86.933 5.79808 86.8611 5.88279C86.7851 5.97574 86.7073 6.01191 86.6294 5.99085L86.0924 5.80953L86.2609 5.21887C86.5631 5.30358 86.7503 5.3599 86.8195 5.38737H86.8199ZM84.053 4.32006L83.526 4.26924L82.3849 6.62272L82.8717 6.63233L83.0905 6.22299C83.4655 6.23536 83.8002 6.26283 84.0942 6.30541L84.2338 6.75001L84.7293 6.82327L84.053 4.32006ZM83.7357 4.86951L84.0214 5.89515C83.773 5.85606 83.5226 5.83068 83.2714 5.81915L83.7357 4.86951ZM88.732 5.65111L88.2045 5.41896L88.4779 6.94048L87.9605 7.93179L88.4142 8.17629L88.9321 7.18179L90.3488 6.52794C90.1427 6.40889 89.987 6.31823 89.8817 6.25459L88.9097 6.69598L88.732 5.65111Z" fill="#B1AAA9"/>
</svg>
