<svg width="127" height="38" viewBox="0 0 127 38" fill="none" xmlns="http://www.w3.org/2000/svg">
<path d="M45.0708 14.9074C45.0708 11.1342 47.8219 8.49941 52.8215 8.49941C55.8721 8.49941 58.3683 9.4734 59.7207 10.4275C59.9142 10.5638 60.2595 10.8943 60.0525 11.509C59.7872 12.1711 59.3006 13.1667 58.9514 13.8135C58.7482 14.1903 58.2293 14.1407 57.9634 14.006C57.0001 13.5178 55.4201 12.692 53.9687 12.5398C53.6011 12.4998 53.2314 12.4838 52.8618 12.4919C51.5835 12.5204 50.5155 12.9643 50.1394 13.9395C50.0657 14.1241 50.0246 14.32 50.0179 14.5186C49.9828 15.8037 51.7714 16.2684 53.9381 16.6407C57.9662 17.3308 61.0138 18.5118 61.0138 22.6579C61.0138 26.1788 58.2155 29.3607 52.7329 29.2632C49.1186 29.1901 46.5543 27.9689 45.1803 26.7838C45.1335 26.7435 44.6104 26.2108 44.8908 25.5702C45.2116 24.7454 45.7532 23.8002 46.1782 23.2983C46.4145 22.9759 47.0382 22.9247 47.3623 23.1256C48.4949 23.8295 50.3589 24.958 52.5075 25.0329C52.6771 25.0387 52.8452 25.0398 53.0102 25.0354C54.9429 24.9886 56.1122 24.2557 56.0878 23.0212C56.0669 21.9337 54.5345 21.2983 52.0943 20.8385C48.2024 20.1054 45.0713 18.8225 45.0713 14.9074H45.0708ZM80.4282 20.28C77.6837 20.3159 75.1674 21.0661 75.0948 23.2109C75.094 24.9129 76.4747 25.7489 78.4125 25.6394C80.2714 25.4604 81.6889 24.6542 82.3136 23.5845C82.5445 23.188 82.5797 21.7045 82.5657 21.0704C82.5621 20.9355 82.2952 20.6801 82.1784 20.6309C81.5952 20.3852 81.1636 20.3093 80.428 20.2795L80.4282 20.28ZM71.2961 11.6376C72.5795 10.4892 75.1241 8.70159 79.1795 8.79581C84.5312 8.90709 87.3585 11.416 87.6218 17.4179C87.7303 19.893 87.5505 26.7968 87.5077 28.5168C87.5013 28.7636 87.4178 28.9342 87.0853 28.9406C86.204 28.976 84.1679 28.962 83.2323 28.9497C82.7602 28.9268 82.7055 28.6926 82.6993 28.4473C82.6953 28.2869 82.6815 27.8112 82.6716 27.4234C82.6662 27.2177 82.473 27.2235 82.4236 27.2762C81.1682 28.6167 79.1123 29.264 76.9259 29.264C73.6029 29.264 70.29 27.3091 70.3002 23.4378C70.3104 19.4731 73.1216 17.5175 76.2099 17.0563C78.1874 16.7619 80.4165 17.0237 82.1045 17.6944C82.2125 17.7377 82.433 17.6751 82.4348 17.522C82.4417 17.0168 82.4172 16.054 82.3202 15.5977C82.0724 14.435 81.1025 13.4995 79.0649 13.2474C78.6452 13.1957 78.2228 13.1787 77.7998 13.2123C76.1801 13.3396 74.2308 14.6026 73.4236 15.0755C73.2337 15.1865 72.9362 15.1053 72.84 14.9812C72.3689 14.3727 71.1848 12.5927 71.0916 12.3083C70.9984 12.0246 71.1298 11.7858 71.2956 11.6366L71.2961 11.6376ZM89.3864 19.018C89.3546 13.4886 93.2073 8.82382 99.4633 8.78282C103.367 8.75736 106.203 10.5271 106.703 11.3618C106.805 11.5579 106.752 11.7216 106.682 11.919C106.352 12.6167 105.517 13.9647 104.922 14.7286C104.669 15.0541 104.394 14.7752 104.074 14.5626C103.187 13.9719 101.502 13.2494 99.8434 13.2494C96.8346 13.25 94.5941 15.313 94.619 19.1087C94.6424 22.7511 96.7885 24.7528 99.8539 24.8253C101.456 24.8656 103.009 23.9445 103.844 23.1901C104.106 22.9611 104.378 23.0757 104.678 23.31C105.266 23.9112 106.109 24.8393 106.577 25.4782C106.883 25.8332 106.654 26.1805 106.544 26.3201C105.275 27.9261 102.824 29.2777 99.5799 29.296C92.7876 29.3437 89.4183 24.5679 89.3869 19.0188L89.3864 19.018ZM121.809 29.0468C122.128 29.0228 125.53 28.5533 126.574 28.3142C126.833 28.2551 126.926 28.0371 126.781 27.8212C126.198 26.9467 124.664 24.4635 123.059 22.2405C121.582 20.1965 120.025 18.3988 119.522 17.7072C119.399 17.5391 119.406 17.3736 119.539 17.2432C120.497 16.3061 124.503 12.3783 126.009 10.7563C126.592 10.1253 126.242 9.85384 125.747 9.7064C124.79 9.4212 123.243 9.06573 122.363 8.8801C121.992 8.80167 121.545 8.82917 121.22 9.16274C119.714 10.5671 115.118 15.1799 113.746 16.5587C113.499 16.8075 113.356 16.7523 113.354 16.3968C113.343 13.7384 113.291 2.35649 113.196 0.484387C113.189 0.236878 112.891 0.0489536 112.724 0.0400412C111.861 -0.00502994 109.681 -0.0180167 108.823 0.0324018C108.582 0.0596482 108.352 0.304866 108.331 0.512142C108.133 3.50568 108.415 25.4805 108.533 28.5545C108.541 28.7768 108.707 28.9492 108.918 28.9617C109.775 29.0114 111.894 29.008 112.884 28.9895C113.37 28.9895 113.43 28.6472 113.43 28.6472L113.503 22.7505C113.503 22.7505 113.553 22.4883 113.635 22.4017C113.984 22.0261 114.949 20.9918 115.36 20.592C115.459 20.496 115.615 20.5028 115.716 20.6386C116.205 21.2981 117.599 23.4421 118.891 25.357C120.078 27.1161 121.187 28.6773 121.264 28.7875C121.443 29.0422 121.652 29.0524 121.809 29.0475V29.0468H121.809ZM63.9464 29.0264C64.2457 29.0363 66.5158 29.0338 67.5216 29.0325C67.8603 29.0391 68.0362 28.7827 68.0474 28.5563C68.2611 24.2463 68.1696 3.72594 68.0347 0.48566C68.0235 0.205557 67.9035 0.100391 67.7123 0.074927C66.8491 -0.0406792 64.3959 -0.0136877 63.6096 0.192061C63.4558 0.232039 63.3651 0.348918 63.3603 0.499156C63.1678 8.85132 63.2976 28.1071 63.3384 28.4718C63.3789 28.8369 63.5698 29.0137 63.947 29.0264H63.9464Z" fill="#B1AAA9"/>
<path d="M3.19138 20.4565C1.7924 20.4672 0.607306 19.6335 0.170346 18.3323C0.154136 18.2832 0.139023 18.2337 0.12502 18.1839C-0.351155 16.5175 0.572166 14.7743 2.22707 14.2161L28.7707 5.32333C29.0858 5.23215 29.412 5.18452 29.7401 5.18175C31.1762 5.17055 32.3939 6.02257 32.8416 7.35128L32.8813 7.47961C33.3778 9.21524 32.1441 10.7645 30.6659 11.261C30.6649 11.2618 30.396 11.3527 4.26953 20.2729C3.92226 20.3913 3.55826 20.4533 3.19138 20.4565Z" fill="#B1AAA9"/>
<path d="M7.61596 33.5107C6.20603 33.5209 5.01686 32.6989 4.58499 31.4163C4.5686 31.3675 4.55332 31.3184 4.53916 31.2689C4.05636 29.5827 4.97866 27.8211 6.63917 27.2621L33.1838 18.2879C33.5268 18.1733 33.881 18.1147 34.2372 18.1114C35.651 18.1007 36.8931 18.9645 37.3313 20.2616L37.3721 20.3966C37.6285 21.2931 37.477 22.3007 36.9672 23.096C36.5873 23.6873 35.389 24.2077 35.389 24.2077L8.74351 33.3185C8.3801 33.4415 7.9996 33.5066 7.61596 33.5112V33.5107Z" fill="#B1AAA9"/>
<path d="M29.7126 33.5675C29.0245 33.5741 28.352 33.3628 27.7915 32.9638C27.2309 32.5648 26.811 31.9986 26.592 31.3463L17.7331 5.03188L17.6888 4.88419C17.2088 3.20612 18.1318 1.45573 19.7862 0.898069C20.1172 0.786791 20.4595 0.728733 20.804 0.725678C21.3158 0.721858 21.8111 0.837209 22.2776 1.06766C22.6619 1.25769 23.0048 1.52182 23.2866 1.84486C23.5684 2.16789 23.7836 2.54346 23.9198 2.94995L32.7779 29.2621L32.8036 29.3466C33.3012 31.0889 32.3802 32.8403 30.7258 33.3979C30.399 33.5071 30.0571 33.5643 29.7126 33.5675Z" fill="#B1AAA9"/>
<path d="M16.5441 37.9996C15.8557 38.0062 15.1829 37.7946 14.6221 37.3953C14.0612 36.9959 13.6413 36.4293 13.4223 35.7766L4.56566 9.46321C4.42843 9.05726 4.37261 8.62823 4.40141 8.20068C4.43021 7.77313 4.54305 7.35546 4.73347 6.97157C4.9239 6.58769 5.18817 6.24514 5.51116 5.96353C5.83415 5.68191 6.20951 5.46677 6.61576 5.33041C6.94303 5.22101 7.28544 5.16361 7.63049 5.16032C8.31864 5.15352 8.99127 5.36478 9.55195 5.76381C10.1126 6.16283 10.5326 6.72914 10.7516 7.38153L19.6085 33.6959C19.7458 34.1021 19.8016 34.5313 19.7727 34.9591C19.7438 35.3868 19.6308 35.8047 19.4401 36.1887C19.2495 36.5727 18.9849 36.9152 18.6616 37.1968C18.3383 37.4784 17.9626 37.6934 17.5561 37.8295C17.2294 37.939 16.8876 37.9963 16.5431 37.9993H16.5441V37.9996Z" fill="#B1AAA9"/>
<path d="M25.3448 27.6419L31.5218 25.53L29.5025 19.5332L23.3184 21.623L25.3448 27.6419Z" fill="#B1AAA9"/>
<path d="M12.1969 32.1367L18.3735 30.025L16.3389 23.9824L10.1562 26.073L12.1969 32.1367Z" fill="#B1AAA9"/>
<path d="M20.9475 14.5798L27.125 12.4707L25.1294 6.54395L18.9404 8.61747L20.9475 14.5798Z" fill="#B1AAA9"/>
<path d="M7.79811 19.0691L13.9757 16.9599L11.9556 10.9575L5.7666 13.0308L7.79811 19.0691Z" fill="#B1AAA9"/>
</svg>
